<svg width="210px" height="443px"
 viewBox="0.00 0.00 210.00 443.00" xmlns="http://www.w3.org/2000/svg" xmlns:xlink="http://www.w3.org/1999/xlink">
<g id="graph0" class="graph" transform="scale(1.0 1.0) rotate(0) translate(4 439)">
<title>uniks.studyright.model</title>
<polygon fill="white" stroke="transparent" points="-4,4 -4,-439 206,-439 206,4 -4,4"/>
<!-- University -->
<g id="node1" class="node">
<title>University</title>
<polygon fill="none" stroke="black" points="81,-409 81,-431 158,-431 158,-409 81,-409"/>
<text text-anchor="start" x="89.95" y="-415.4" font-family="Times,serif" font-size="14.00">University</text>
<polygon fill="none" stroke="black" points="81,-387 81,-409 158,-409 158,-387 81,-387"/>
<text text-anchor="start" x="84" y="-393.4" font-family="Times,serif" font-size="14.00">name :String</text>
</g>
<!-- Student -->
<g id="node2" class="node">
<title>Student</title>
<polygon fill="none" stroke="black" points="8,-321 8,-343 120,-343 120,-321 8,-321"/>
<text text-anchor="start" x="42.61" y="-327.4" font-family="Times,serif" font-size="14.00">Student</text>
<polygon fill="none" stroke="black" points="8,-231 8,-321 120,-321 120,-231 8,-231"/>
<text text-anchor="start" x="11" y="-305.4" font-family="Times,serif" font-size="14.00">name :String</text>
<text text-anchor="start" x="11" y="-288.6" font-family="Times,serif" font-size="14.00">studentId :String</text>
<text text-anchor="start" x="11" y="-271.8" font-family="Times,serif" font-size="14.00">credits :double</text>
<text text-anchor="start" x="11" y="-255" font-family="Times,serif" font-size="14.00">points :double</text>
<text text-anchor="start" x="11" y="-238.2" font-family="Times,serif" font-size="14.00">motivation :double</text>
</g>
<!-- Student&#45;&gt;University -->
<g id="edge4" class="edge">
<title>Student&#45;&gt;University</title>
<path fill="none" stroke="black" d="M91.18,-347.3C96.92,-359.82 102.67,-372.37 107.45,-382.79"/>
<text text-anchor="middle" x="98.5" y="-370.19" font-family="Times,serif" font-size="14.00">uni</text>
<text text-anchor="middle" x="62.99" y="-351.5" font-family="Times,serif" font-size="14.00">students *</text>
</g>
<!-- Student&#45;&gt;Student -->
<g id="edge3" class="edge">
<title>Student&#45;&gt;Student</title>
<path fill="none" stroke="black" d="M128.29,-265.84C138.79,-268.87 146,-275.92 146,-287 146,-298.08 138.79,-305.13 128.29,-308.16"/>
<text text-anchor="middle" x="152.97" y="-295.56" font-family="Times,serif" font-size="14.00">friends *</text>
<text text-anchor="middle" x="152.97" y="-253.24" font-family="Times,serif" font-size="14.00">friends *</text>
</g>
<!-- Room -->
<g id="node3" class="node">
<title>Room</title>
<polygon fill="none" stroke="black" points="100,-165 100,-187 194,-187 194,-165 100,-165"/>
<text text-anchor="start" x="129.89" y="-171.4" font-family="Times,serif" font-size="14.00">Room</text>
<polygon fill="none" stroke="black" points="100,-109 100,-165 194,-165 194,-109 100,-109"/>
<text text-anchor="start" x="103" y="-149.4" font-family="Times,serif" font-size="14.00">roomNo :String</text>
<text text-anchor="start" x="103" y="-132.6" font-family="Times,serif" font-size="14.00">topic :String</text>
<text text-anchor="start" x="103" y="-115.8" font-family="Times,serif" font-size="14.00">credits :double</text>
</g>
<!-- Room&#45;&gt;University -->
<g id="edge5" class="edge">
<title>Room&#45;&gt;University</title>
<path fill="none" stroke="black" d="M155.98,-191.17C162.96,-231.83 169.27,-294.73 155,-347 151.53,-359.69 144.68,-372.43 137.87,-382.96"/>
<text text-anchor="middle" x="128.92" y="-370.36" font-family="Times,serif" font-size="14.00">uni</text>
<text text-anchor="middle" x="178.73" y="-195.37" font-family="Times,serif" font-size="14.00">rooms *</text>
</g>
<!-- Room&#45;&gt;Student -->
<g id="edge1" class="edge">
<title>Room&#45;&gt;Student</title>
<path fill="none" stroke="black" d="M121.42,-191.22C114.61,-202.47 107.12,-214.82 99.87,-226.79"/>
<text text-anchor="middle" x="71.68" y="-214.19" font-family="Times,serif" font-size="14.00">students *</text>
<text text-anchor="middle" x="115.97" y="-195.42" font-family="Times,serif" font-size="14.00">in</text>
</g>
<!-- Assignment -->
<g id="node4" class="node">
<title>Assignment</title>
<polygon fill="none" stroke="black" points="63,-42.5 63,-64.5 148,-64.5 148,-42.5 63,-42.5"/>
<text text-anchor="start" x="72.06" y="-48.9" font-family="Times,serif" font-size="14.00">Assignment</text>
<polygon fill="none" stroke="black" points="63,-3.5 63,-42.5 148,-42.5 148,-3.5 63,-3.5"/>
<text text-anchor="start" x="66" y="-26.9" font-family="Times,serif" font-size="14.00">task :String</text>
<text text-anchor="start" x="66" y="-10.1" font-family="Times,serif" font-size="14.00">points :double</text>
</g>
<!-- Assignment&#45;&gt;Student -->
<g id="edge6" class="edge">
<title>Assignment&#45;&gt;Student</title>
<path fill="none" stroke="black" d="M92.87,-69.07C89.19,-80.36 85.48,-93.11 83,-105 74.62,-145.21 69.85,-191.26 67.18,-226.84"/>
<text text-anchor="middle" x="38.99" y="-214.24" font-family="Times,serif" font-size="14.00">students *</text>
<text text-anchor="middle" x="74.01" y="-73.27" font-family="Times,serif" font-size="14.00">done *</text>
</g>
<!-- Assignment&#45;&gt;Room -->
<g id="edge2" class="edge">
<title>Assignment&#45;&gt;Room</title>
<path fill="none" stroke="black" d="M117.72,-69.26C121.92,-80.41 126.64,-92.96 131.06,-104.67"/>
<text text-anchor="middle" x="116.28" y="-92.07" font-family="Times,serif" font-size="14.00">room</text>
<text text-anchor="middle" x="157.18" y="-73.46" font-family="Times,serif" font-size="14.00">assignments *</text>
</g>
</g>
</svg>
