<?xml version="1.0" encoding="UTF-8" standalone="no"?>
<!DOCTYPE svg PUBLIC "-//W3C//DTD SVG 1.1//EN"
 "http://www.w3.org/Graphics/SVG/1.1/DTD/svg11.dtd">
<!-- Generated by graphviz version 2.40.1 (20161225.0304)
 -->
<!-- Title: H Pages: 1 -->
<svg width="710pt" height="320pt"
 viewBox="0.00 0.00 710.00 320.00" xmlns="http://www.w3.org/2000/svg" xmlns:xlink="http://www.w3.org/1999/xlink">
<g id="graph0" class="graph" transform="scale(1 1) rotate(0) translate(4 316)">
<title>H</title>
<polygon fill="#ffffff" stroke="transparent" points="-4,4 -4,-316 706,-316 706,4 -4,4"/>
<!-- study_Right1 -->
<g id="node1" class="node">
<title>study_Right1</title>
<polygon fill="none" stroke="#000000" points="266,-290 266,-308 373,-308 373,-290 266,-290"/>
<text text-anchor="start" x="268.8065" y="-297" font-family="Times,serif" text-decoration="underline" font-size="10.00" fill="#000000">study_Right1 :University</text>
<polygon fill="none" stroke="#000000" points="266,-272 266,-290 373,-290 373,-272 266,-272"/>
<text text-anchor="start" x="272.7405" y="-278" font-family="Times,serif" font-size="10.00" fill="#000000"> &#160;name = &quot;Study Right&quot;</text>
</g>
<!-- r2 -->
<g id="node2" class="node">
<title>r2</title>
<polygon fill="none" stroke="#000000" points="132,-192 132,-210 226,-210 226,-192 132,-192"/>
<text text-anchor="start" x="159.972" y="-199" font-family="Times,serif" text-decoration="underline" font-size="10.00" fill="#000000">r2 :Room</text>
<polygon fill="none" stroke="#000000" points="132,-150 132,-192 226,-192 226,-150 132,-150"/>
<text text-anchor="start" x="135" y="-180" font-family="Times,serif" font-size="10.00" fill="#000000"> &#160;credits = 42.0</text>
<text text-anchor="start" x="135" y="-168" font-family="Times,serif" font-size="10.00" fill="#000000"> &#160;roomNo = &quot;wa1337&quot;</text>
<text text-anchor="start" x="135" y="-156" font-family="Times,serif" font-size="10.00" fill="#000000"> &#160;topic = &quot;Math&quot;</text>
</g>
<!-- study_Right1&#45;&gt;r2 -->
<g id="edge1" class="edge">
<title>study_Right1&#45;&gt;r2</title>
<path fill="none" stroke="#000000" d="M290.6689,-267.7399C271.0936,-252.3593 244.6828,-231.6079 222.4607,-214.1477"/>
<text text-anchor="middle" x="209.9622" y="-217.1477" font-family="Times,serif" font-size="10.00" fill="#000000">rooms</text>
<text text-anchor="middle" x="284.2794" y="-258.7399" font-family="Times,serif" font-size="10.00" fill="#000000">uni</text>
</g>
<!-- r3 -->
<g id="node3" class="node">
<title>r3</title>
<polygon fill="none" stroke="#000000" points="466,-192 466,-210 560,-210 560,-192 466,-192"/>
<text text-anchor="start" x="493.972" y="-199" font-family="Times,serif" text-decoration="underline" font-size="10.00" fill="#000000">r3 :Room</text>
<polygon fill="none" stroke="#000000" points="466,-150 466,-192 560,-192 560,-150 466,-150"/>
<text text-anchor="start" x="469" y="-180" font-family="Times,serif" font-size="10.00" fill="#000000"> &#160;credits = 23.0</text>
<text text-anchor="start" x="469" y="-168" font-family="Times,serif" font-size="10.00" fill="#000000"> &#160;roomNo = &quot;wa1338&quot;</text>
<text text-anchor="start" x="469" y="-156" font-family="Times,serif" font-size="10.00" fill="#000000"> &#160;topic = &quot;Arts&quot;</text>
</g>
<!-- study_Right1&#45;&gt;r3 -->
<g id="edge2" class="edge">
<title>study_Right1&#45;&gt;r3</title>
<path fill="none" stroke="#000000" d="M358.651,-267.749C377.8061,-256.9801 401.1153,-243.8471 422,-232 433.5537,-225.4461 445.9177,-218.4016 457.6905,-211.6793"/>
<text text-anchor="middle" x="445.192" y="-214.6793" font-family="Times,serif" font-size="10.00" fill="#000000">rooms</text>
<text text-anchor="middle" x="352.2615" y="-258.749" font-family="Times,serif" font-size="10.00" fill="#000000">uni</text>
</g>
<!-- alice4 -->
<g id="node4" class="node">
<title>alice4</title>
<polygon fill="none" stroke="#000000" points="272,-210 272,-228 366,-228 366,-210 272,-210"/>
<text text-anchor="start" x="289.145" y="-217" font-family="Times,serif" text-decoration="underline" font-size="10.00" fill="#000000">alice4 :Student</text>
<polygon fill="none" stroke="#000000" points="272,-132 272,-210 366,-210 366,-132 272,-132"/>
<text text-anchor="start" x="275" y="-198" font-family="Times,serif" font-size="10.00" fill="#000000"> &#160;credits = 0.0</text>
<text text-anchor="start" x="275" y="-186" font-family="Times,serif" font-size="10.00" fill="#000000"> &#160;in = null</text>
<text text-anchor="start" x="275" y="-174" font-family="Times,serif" font-size="10.00" fill="#000000"> &#160;motivation = 0.0</text>
<text text-anchor="start" x="275" y="-162" font-family="Times,serif" font-size="10.00" fill="#000000"> &#160;name = &quot;Alice&quot;</text>
<text text-anchor="start" x="275" y="-150" font-family="Times,serif" font-size="10.00" fill="#000000"> &#160;points = 0.0</text>
<text text-anchor="start" x="275" y="-138" font-family="Times,serif" font-size="10.00" fill="#000000"> &#160;studentId = &quot;m4242&quot;</text>
</g>
<!-- study_Right1&#45;&gt;alice4 -->
<g id="edge3" class="edge">
<title>study_Right1&#45;&gt;alice4</title>
<path fill="none" stroke="#000000" d="M319,-267.7399C319,-257.4443 319,-244.7422 319,-232.2316"/>
<text text-anchor="middle" x="302.6125" y="-235.2316" font-family="Times,serif" font-size="10.00" fill="#000000">students</text>
<text text-anchor="middle" x="312.6105" y="-258.7399" font-family="Times,serif" font-size="10.00" fill="#000000">uni</text>
</g>
<!-- bobby5 -->
<g id="node5" class="node">
<title>bobby5</title>
<polygon fill="none" stroke="#000000" points="364,-70 364,-88 458,-88 458,-70 364,-70"/>
<text text-anchor="start" x="378.0825" y="-77" font-family="Times,serif" text-decoration="underline" font-size="10.00" fill="#000000">bobby5 :Student</text>
<polygon fill="none" stroke="#000000" points="364,-4 364,-70 458,-70 458,-4 364,-4"/>
<text text-anchor="start" x="367" y="-58" font-family="Times,serif" font-size="10.00" fill="#000000"> &#160;credits = 0.0</text>
<text text-anchor="start" x="367" y="-46" font-family="Times,serif" font-size="10.00" fill="#000000"> &#160;motivation = 0.0</text>
<text text-anchor="start" x="367" y="-34" font-family="Times,serif" font-size="10.00" fill="#000000"> &#160;name = &quot;Bobby&quot;</text>
<text text-anchor="start" x="367" y="-22" font-family="Times,serif" font-size="10.00" fill="#000000"> &#160;points = 0.0</text>
<text text-anchor="start" x="367" y="-10" font-family="Times,serif" font-size="10.00" fill="#000000"> &#160;studentId = &quot;m2323&quot;</text>
</g>
<!-- study_Right1&#45;&gt;bobby5 -->
<g id="edge4" class="edge">
<title>study_Right1&#45;&gt;bobby5</title>
<path fill="none" stroke="#000000" d="M351.7695,-267.7523C363.4597,-258.1283 375.5627,-245.8774 383,-232 406.2925,-188.5383 411.8487,-131.6355 412.4882,-92.2689"/>
<text text-anchor="middle" x="396.1007" y="-95.2689" font-family="Times,serif" font-size="10.00" fill="#000000">students</text>
<text text-anchor="middle" x="345.38" y="-258.7523" font-family="Times,serif" font-size="10.00" fill="#000000">uni</text>
</g>
<!-- carli6 -->
<g id="node6" class="node">
<title>carli6</title>
<polygon fill="none" stroke="#000000" points="8,-70 8,-88 102,-88 102,-70 8,-70"/>
<text text-anchor="start" x="25.7" y="-77" font-family="Times,serif" text-decoration="underline" font-size="10.00" fill="#000000">carli6 :Student</text>
<polygon fill="none" stroke="#000000" points="8,-4 8,-70 102,-70 102,-4 8,-4"/>
<text text-anchor="start" x="11" y="-58" font-family="Times,serif" font-size="10.00" fill="#000000"> &#160;credits = 0.0</text>
<text text-anchor="start" x="11" y="-46" font-family="Times,serif" font-size="10.00" fill="#000000"> &#160;motivation = 0.0</text>
<text text-anchor="start" x="11" y="-34" font-family="Times,serif" font-size="10.00" fill="#000000"> &#160;name = &quot;Carli&quot;</text>
<text text-anchor="start" x="11" y="-22" font-family="Times,serif" font-size="10.00" fill="#000000"> &#160;points = 0.0</text>
<text text-anchor="start" x="11" y="-10" font-family="Times,serif" font-size="10.00" fill="#000000"> &#160;studentId = &quot;m4646&quot;</text>
</g>
<!-- study_Right1&#45;&gt;carli6 -->
<g id="edge5" class="edge">
<title>study_Right1&#45;&gt;carli6</title>
<path fill="none" stroke="#000000" d="M257.3643,-279.0935C205.0759,-268.682 135.3957,-251.6934 115,-232 76.9221,-195.2335 62.9714,-134.2073 57.8826,-92.1407"/>
<text text-anchor="middle" x="41.4951" y="-95.1407" font-family="Times,serif" font-size="10.00" fill="#000000">students</text>
<text text-anchor="middle" x="250.9748" y="-282.0935" font-family="Times,serif" font-size="10.00" fill="#000000">uni</text>
</g>
<!-- r2&#45;&gt;carli6 -->
<g id="edge8" class="edge">
<title>r2&#45;&gt;carli6</title>
<path fill="none" stroke="#000000" d="M147.3887,-145.8394C132.3204,-129.5559 114.0704,-109.8341 97.7836,-92.2339"/>
<text text-anchor="middle" x="81.3961" y="-95.2339" font-family="Times,serif" font-size="10.00" fill="#000000">students</text>
<text text-anchor="middle" x="143.4992" y="-136.8394" font-family="Times,serif" font-size="10.00" fill="#000000">in</text>
</g>
<!-- a7 -->
<g id="node7" class="node">
<title>a7</title>
<polygon fill="none" stroke="#000000" points="250,-52 250,-70 330,-70 330,-52 250,-52"/>
<text text-anchor="start" x="258.7545" y="-59" font-family="Times,serif" text-decoration="underline" font-size="10.00" fill="#000000">a7 :Assignment</text>
<polygon fill="none" stroke="#000000" points="250,-22 250,-52 330,-52 330,-22 250,-22"/>
<text text-anchor="start" x="253" y="-40" font-family="Times,serif" font-size="10.00" fill="#000000"> &#160;points = 42.0</text>
<text text-anchor="start" x="253" y="-28" font-family="Times,serif" font-size="10.00" fill="#000000"> &#160;task = &quot;integrals&quot;</text>
</g>
<!-- r2&#45;&gt;a7 -->
<g id="edge6" class="edge">
<title>r2&#45;&gt;a7</title>
<path fill="none" stroke="#000000" d="M207.2972,-145.8394C225.6674,-123.6628 249.3201,-95.109 266.6218,-74.2223"/>
<text text-anchor="middle" x="242.1808" y="-77.2223" font-family="Times,serif" font-size="10.00" fill="#000000">assignments</text>
<text text-anchor="middle" x="196.7432" y="-136.8394" font-family="Times,serif" font-size="10.00" fill="#000000">room</text>
</g>
<!-- a8 -->
<g id="node8" class="node">
<title>a8</title>
<polygon fill="none" stroke="#000000" points="137,-52 137,-70 216,-70 216,-52 137,-52"/>
<text text-anchor="start" x="145.2545" y="-59" font-family="Times,serif" text-decoration="underline" font-size="10.00" fill="#000000">a8 :Assignment</text>
<polygon fill="none" stroke="#000000" points="137,-22 137,-52 216,-52 216,-22 137,-22"/>
<text text-anchor="start" x="140" y="-40" font-family="Times,serif" font-size="10.00" fill="#000000"> &#160;points = 23.0</text>
<text text-anchor="start" x="140" y="-28" font-family="Times,serif" font-size="10.00" fill="#000000"> &#160;task = &quot;matrices&quot;</text>
</g>
<!-- r2&#45;&gt;a8 -->
<g id="edge7" class="edge">
<title>r2&#45;&gt;a8</title>
<path fill="none" stroke="#000000" d="M178.2352,-145.8394C177.7387,-123.6628 177.0995,-95.109 176.6318,-74.2223"/>
<text text-anchor="middle" x="152.1908" y="-77.2223" font-family="Times,serif" font-size="10.00" fill="#000000">assignments</text>
<text text-anchor="middle" x="167.6812" y="-136.8394" font-family="Times,serif" font-size="10.00" fill="#000000">room</text>
</g>
<!-- r3&#45;&gt;bobby5 -->
<g id="edge11" class="edge">
<title>r3&#45;&gt;bobby5</title>
<path fill="none" stroke="#000000" d="M486.9972,-145.8394C474.6022,-129.5559 459.5902,-109.8341 446.193,-92.2339"/>
<text text-anchor="middle" x="429.8055" y="-95.2339" font-family="Times,serif" font-size="10.00" fill="#000000">students</text>
<text text-anchor="middle" x="483.1077" y="-136.8394" font-family="Times,serif" font-size="10.00" fill="#000000">in</text>
</g>
<!-- a9 -->
<g id="node9" class="node">
<title>a9</title>
<polygon fill="none" stroke="#000000" points="492,-52 492,-70 574,-70 574,-52 492,-52"/>
<text text-anchor="start" x="501.7545" y="-59" font-family="Times,serif" text-decoration="underline" font-size="10.00" fill="#000000">a9 :Assignment</text>
<polygon fill="none" stroke="#000000" points="492,-22 492,-52 574,-52 574,-22 492,-22"/>
<text text-anchor="start" x="495" y="-40" font-family="Times,serif" font-size="10.00" fill="#000000"> &#160;points = 12.0</text>
<text text-anchor="start" x="495" y="-28" font-family="Times,serif" font-size="10.00" fill="#000000"> &#160;task = &quot;drawings&quot;</text>
</g>
<!-- r3&#45;&gt;a9 -->
<g id="edge9" class="edge">
<title>r3&#45;&gt;a9</title>
<path fill="none" stroke="#000000" d="M518.0986,-145.8394C521.4085,-123.6628 525.6703,-95.109 528.7877,-74.2223"/>
<text text-anchor="middle" x="504.3467" y="-77.2223" font-family="Times,serif" font-size="10.00" fill="#000000">assignments</text>
<text text-anchor="middle" x="507.5446" y="-136.8394" font-family="Times,serif" font-size="10.00" fill="#000000">room</text>
</g>
<!-- a10 -->
<g id="node10" class="node">
<title>a10</title>
<polygon fill="none" stroke="#000000" points="608,-52 608,-70 694,-70 694,-52 608,-52"/>
<text text-anchor="start" x="617.2545" y="-59" font-family="Times,serif" text-decoration="underline" font-size="10.00" fill="#000000">a10 :Assignment</text>
<polygon fill="none" stroke="#000000" points="608,-22 608,-52 694,-52 694,-22 608,-22"/>
<text text-anchor="start" x="611" y="-40" font-family="Times,serif" font-size="10.00" fill="#000000"> &#160;points = 12.0</text>
<text text-anchor="start" x="611" y="-28" font-family="Times,serif" font-size="10.00" fill="#000000"> &#160;task = &quot;sculptures&quot;</text>
</g>
<!-- r3&#45;&gt;a10 -->
<g id="edge10" class="edge">
<title>r3&#45;&gt;a10</title>
<path fill="none" stroke="#000000" d="M548.1803,-145.8394C571.0189,-123.6628 600.4251,-95.109 621.9353,-74.2223"/>
<text text-anchor="middle" x="597.4943" y="-77.2223" font-family="Times,serif" font-size="10.00" fill="#000000">assignments</text>
<text text-anchor="middle" x="537.6263" y="-136.8394" font-family="Times,serif" font-size="10.00" fill="#000000">room</text>
</g>
<!-- alice4&#45;&gt;bobby5 -->
<g id="edge13" class="edge">
<title>alice4&#45;&gt;bobby5</title>
<path fill="none" stroke="#000000" d="M354.833,-127.8084C362.9056,-116.0506 371.4178,-103.6523 379.3066,-92.1621"/>
<text text-anchor="middle" x="365.4241" y="-95.1621" font-family="Times,serif" font-size="10.00" fill="#000000">friends</text>
<text text-anchor="middle" x="340.9505" y="-118.8084" font-family="Times,serif" font-size="10.00" fill="#000000">friends</text>
</g>
<!-- alice4&#45;&gt;a7 -->
<g id="edge12" class="edge">
<title>alice4&#45;&gt;a7</title>
<path fill="none" stroke="#000000" d="M307.7048,-127.8084C303.7607,-109.5838 299.4835,-89.8205 296.1214,-74.2849"/>
<text text-anchor="middle" x="286.4019" y="-77.2849" font-family="Times,serif" font-size="10.00" fill="#000000">done</text>
<text text-anchor="middle" x="291.3173" y="-118.8084" font-family="Times,serif" font-size="10.00" fill="#000000">students</text>
</g>
</g>
</svg>
