<?xml version="1.0" encoding="UTF-8" standalone="no"?>
<!DOCTYPE svg PUBLIC "-//W3C//DTD SVG 1.1//EN"
 "http://www.w3.org/Graphics/SVG/1.1/DTD/svg11.dtd">
<!-- Generated by graphviz version 2.47.1 (20210417.1919)
 -->
<!-- Title: uniks.studyright.model Pages: 1 -->
<svg width="690px" height="294px"
 viewBox="0.00 0.00 689.50 294.00" xmlns="http://www.w3.org/2000/svg" xmlns:xlink="http://www.w3.org/1999/xlink">
<g id="graph0" class="graph" transform="scale(1.0 1.0) rotate(0) translate(4 290)">
<title>uniks.studyright.model</title>
<polygon fill="white" stroke="transparent" points="-4,4 -4,-290 685.5,-290 685.5,4 -4,4"/>
<!-- study_Right -->
<g id="node1" class="node">
<title>study_Right</title>
<polygon fill="none" stroke="black" points="257.5,-265 257.5,-282 360.5,-282 360.5,-265 257.5,-265"/>
<text text-anchor="start" x="260.5" y="-272" font-family="Times,serif" text-decoration="underline" font-size="10.00">study Right :University</text>
<polygon fill="none" stroke="black" points="257.5,-248 257.5,-265 360.5,-265 360.5,-248 257.5,-248"/>
<text text-anchor="start" x="264" y="-254" font-family="Times,serif" font-size="10.00">name = &quot;Study Right&quot;</text>
</g>
<!-- r -->
<g id="node2" class="node">
<title>r</title>
<polygon fill="none" stroke="black" points="128.5,-176 128.5,-193 219.5,-193 219.5,-176 128.5,-176"/>
<text text-anchor="start" x="157" y="-183" font-family="Times,serif" text-decoration="underline" font-size="10.00">r :Room</text>
<polygon fill="none" stroke="black" points="128.5,-137 128.5,-176 219.5,-176 219.5,-137 128.5,-137"/>
<text text-anchor="start" x="131.5" y="-165" font-family="Times,serif" font-size="10.00">credits = 42.0</text>
<text text-anchor="start" x="131.5" y="-154" font-family="Times,serif" font-size="10.00">roomNo = &quot;wa1337&quot;</text>
<text text-anchor="start" x="131.5" y="-143" font-family="Times,serif" font-size="10.00">topic = &quot;Math&quot;</text>
</g>
<!-- study_Right&#45;&gt;r -->
<g id="edge1" class="edge">
<title>study_Right&#45;&gt;r</title>
<path fill="none" stroke="black" d="M280.85,-243.93C262.26,-230.44 237.39,-212.38 216.26,-197.04"/>
<text text-anchor="middle" x="203.76" y="-200.04" font-family="Times,serif" font-size="10.00">rooms</text>
<text text-anchor="middle" x="273.85" y="-235.93" font-family="Times,serif" font-size="10.00">uni</text>
</g>
<!-- r1 -->
<g id="node3" class="node">
<title>r1</title>
<polygon fill="none" stroke="black" points="453.5,-176 453.5,-193 544.5,-193 544.5,-176 453.5,-176"/>
<text text-anchor="start" x="479.5" y="-183" font-family="Times,serif" text-decoration="underline" font-size="10.00">r1 :Room</text>
<polygon fill="none" stroke="black" points="453.5,-137 453.5,-176 544.5,-176 544.5,-137 453.5,-137"/>
<text text-anchor="start" x="456.5" y="-165" font-family="Times,serif" font-size="10.00">credits = 23.0</text>
<text text-anchor="start" x="456.5" y="-154" font-family="Times,serif" font-size="10.00">roomNo = &quot;wa1338&quot;</text>
<text text-anchor="start" x="456.5" y="-143" font-family="Times,serif" font-size="10.00">topic = &quot;Arts&quot;</text>
</g>
<!-- study_Right&#45;&gt;r1 -->
<g id="edge2" class="edge">
<title>study_Right&#45;&gt;r1</title>
<path fill="none" stroke="black" d="M347.41,-243.93C375.53,-229.43 413.86,-209.66 444.88,-193.66"/>
<text text-anchor="middle" x="432.38" y="-196.66" font-family="Times,serif" font-size="10.00">rooms</text>
<text text-anchor="middle" x="354.41" y="-235.93" font-family="Times,serif" font-size="10.00">uni</text>
</g>
<!-- alice -->
<g id="node4" class="node">
<title>alice</title>
<polygon fill="none" stroke="black" points="263.5,-187 263.5,-204 354.5,-204 354.5,-187 263.5,-187"/>
<text text-anchor="start" x="280.5" y="-194" font-family="Times,serif" text-decoration="underline" font-size="10.00">alice :Student</text>
<polygon fill="none" stroke="black" points="263.5,-126 263.5,-187 354.5,-187 354.5,-126 263.5,-126"/>
<text text-anchor="start" x="266.5" y="-176" font-family="Times,serif" font-size="10.00">credits = 0.0</text>
<text text-anchor="start" x="266.5" y="-165" font-family="Times,serif" font-size="10.00">motivation = 0.0</text>
<text text-anchor="start" x="266.5" y="-154" font-family="Times,serif" font-size="10.00">name = &quot;Alice&quot;</text>
<text text-anchor="start" x="266.5" y="-143" font-family="Times,serif" font-size="10.00">points = 0.0</text>
<text text-anchor="start" x="266.5" y="-132" font-family="Times,serif" font-size="10.00">studentId = &quot;m4242&quot;</text>
</g>
<!-- study_Right&#45;&gt;alice -->
<g id="edge3" class="edge">
<title>study_Right&#45;&gt;alice</title>
<path fill="none" stroke="black" d="M308.5,-243.69C308.5,-233.38 308.5,-220.44 308.5,-208.1"/>
<text text-anchor="middle" x="291.5" y="-211.1" font-family="Times,serif" font-size="10.00">students</text>
<text text-anchor="middle" x="301.5" y="-235.69" font-family="Times,serif" font-size="10.00">uni</text>
</g>
<!-- bobby -->
<g id="node5" class="node">
<title>bobby</title>
<polygon fill="none" stroke="black" points="353.5,-65 353.5,-82 444.5,-82 444.5,-65 353.5,-65"/>
<text text-anchor="start" x="367" y="-72" font-family="Times,serif" text-decoration="underline" font-size="10.00">bobby :Student</text>
<polygon fill="none" stroke="black" points="353.5,-4 353.5,-65 444.5,-65 444.5,-4 353.5,-4"/>
<text text-anchor="start" x="356.5" y="-54" font-family="Times,serif" font-size="10.00">credits = 0.0</text>
<text text-anchor="start" x="356.5" y="-43" font-family="Times,serif" font-size="10.00">motivation = 0.0</text>
<text text-anchor="start" x="356.5" y="-32" font-family="Times,serif" font-size="10.00">name = &quot;Bobby&quot;</text>
<text text-anchor="start" x="356.5" y="-21" font-family="Times,serif" font-size="10.00">points = 0.0</text>
<text text-anchor="start" x="356.5" y="-10" font-family="Times,serif" font-size="10.00">studentId = &quot;m2323&quot;</text>
</g>
<!-- study_Right&#45;&gt;bobby -->
<g id="edge4" class="edge">
<title>study_Right&#45;&gt;bobby</title>
<path fill="none" stroke="black" d="M338.5,-243.78C350.29,-234.29 362.81,-221.98 370.5,-208 391.23,-170.29 397.32,-120.92 398.78,-86.24"/>
<text text-anchor="middle" x="415.78" y="-89.24" font-family="Times,serif" font-size="10.00">students</text>
<text text-anchor="middle" x="331.5" y="-235.78" font-family="Times,serif" font-size="10.00">uni</text>
</g>
<!-- carli -->
<g id="node6" class="node">
<title>carli</title>
<polygon fill="none" stroke="black" points="8.5,-65 8.5,-82 99.5,-82 99.5,-65 8.5,-65"/>
<text text-anchor="start" x="26.5" y="-72" font-family="Times,serif" text-decoration="underline" font-size="10.00">carli :Student</text>
<polygon fill="none" stroke="black" points="8.5,-4 8.5,-65 99.5,-65 99.5,-4 8.5,-4"/>
<text text-anchor="start" x="11.5" y="-54" font-family="Times,serif" font-size="10.00">credits = 0.0</text>
<text text-anchor="start" x="11.5" y="-43" font-family="Times,serif" font-size="10.00">motivation = 0.0</text>
<text text-anchor="start" x="11.5" y="-32" font-family="Times,serif" font-size="10.00">name = &quot;Carli&quot;</text>
<text text-anchor="start" x="11.5" y="-21" font-family="Times,serif" font-size="10.00">points = 0.0</text>
<text text-anchor="start" x="11.5" y="-10" font-family="Times,serif" font-size="10.00">studentId = &quot;m4646&quot;</text>
</g>
<!-- study_Right&#45;&gt;carli -->
<g id="edge5" class="edge">
<title>study_Right&#45;&gt;carli</title>
<path fill="none" stroke="black" d="M248.55,-261.38C205.1,-256.41 147.67,-243.04 110.5,-208 76.72,-176.16 62.96,-123.28 57.35,-86.19"/>
<text text-anchor="middle" x="40.35" y="-89.19" font-family="Times,serif" font-size="10.00">students</text>
<text text-anchor="middle" x="241.55" y="-264.38" font-family="Times,serif" font-size="10.00">uni</text>
</g>
<!-- r&#45;&gt;carli -->
<g id="edge8" class="edge">
<title>r&#45;&gt;carli</title>
<path fill="none" stroke="black" d="M142.28,-132.78C128.12,-118.62 111.15,-101.65 95.85,-86.35"/>
<text text-anchor="middle" x="78.85" y="-89.35" font-family="Times,serif" font-size="10.00">students</text>
<text text-anchor="middle" x="137.78" y="-124.78" font-family="Times,serif" font-size="10.00">in</text>
</g>
<!-- a -->
<g id="node7" class="node">
<title>a</title>
<polygon fill="none" stroke="black" points="242.5,-48 242.5,-65 318.5,-65 318.5,-48 242.5,-48"/>
<text text-anchor="start" x="251" y="-55" font-family="Times,serif" text-decoration="underline" font-size="10.00">a :Assignment</text>
<polygon fill="none" stroke="black" points="242.5,-20 242.5,-48 318.5,-48 318.5,-20 242.5,-20"/>
<text text-anchor="start" x="245.5" y="-37" font-family="Times,serif" font-size="10.00">points = 42.0</text>
<text text-anchor="start" x="245.5" y="-26" font-family="Times,serif" font-size="10.00">task = &quot;integrals&quot;</text>
</g>
<!-- r&#45;&gt;a -->
<g id="edge6" class="edge">
<title>r&#45;&gt;a</title>
<path fill="none" stroke="black" d="M201.33,-132.78C218.8,-113.2 241.04,-88.26 257.5,-69.8"/>
<text text-anchor="middle" x="232.5" y="-72.8" font-family="Times,serif" font-size="10.00">assignments</text>
<text text-anchor="middle" x="190.33" y="-124.78" font-family="Times,serif" font-size="10.00">room</text>
</g>
<!-- a2 -->
<g id="node8" class="node">
<title>a2</title>
<polygon fill="none" stroke="black" points="133.5,-48 133.5,-65 208.5,-65 208.5,-48 133.5,-48"/>
<text text-anchor="start" x="139" y="-55" font-family="Times,serif" text-decoration="underline" font-size="10.00">a2 :Assignment</text>
<polygon fill="none" stroke="black" points="133.5,-20 133.5,-48 208.5,-48 208.5,-20 133.5,-20"/>
<text text-anchor="start" x="136.5" y="-37" font-family="Times,serif" font-size="10.00">points = 23.0</text>
<text text-anchor="start" x="136.5" y="-26" font-family="Times,serif" font-size="10.00">task = &quot;matrices&quot;</text>
</g>
<!-- r&#45;&gt;a2 -->
<g id="edge7" class="edge">
<title>r&#45;&gt;a2</title>
<path fill="none" stroke="black" d="M172.72,-132.78C172.23,-113.2 171.61,-88.26 171.14,-69.8"/>
<text text-anchor="middle" x="146.14" y="-72.8" font-family="Times,serif" font-size="10.00">assignments</text>
<text text-anchor="middle" x="161.72" y="-124.78" font-family="Times,serif" font-size="10.00">room</text>
</g>
<!-- r1&#45;&gt;bobby -->
<g id="edge11" class="edge">
<title>r1&#45;&gt;bobby</title>
<path fill="none" stroke="black" d="M472.49,-132.78C460.68,-118.62 446.54,-101.65 433.79,-86.35"/>
<text text-anchor="middle" x="450.79" y="-89.35" font-family="Times,serif" font-size="10.00">students</text>
<text text-anchor="middle" x="467.99" y="-124.78" font-family="Times,serif" font-size="10.00">in</text>
</g>
<!-- a3 -->
<g id="node9" class="node">
<title>a3</title>
<polygon fill="none" stroke="black" points="478.5,-48 478.5,-65 557.5,-65 557.5,-48 478.5,-48"/>
<text text-anchor="start" x="486" y="-55" font-family="Times,serif" text-decoration="underline" font-size="10.00">a3 :Assignment</text>
<polygon fill="none" stroke="black" points="478.5,-20 478.5,-48 557.5,-48 557.5,-20 478.5,-20"/>
<text text-anchor="start" x="481.5" y="-37" font-family="Times,serif" font-size="10.00">points = 12.0</text>
<text text-anchor="start" x="481.5" y="-26" font-family="Times,serif" font-size="10.00">task = &quot;drawings&quot;</text>
</g>
<!-- r1&#45;&gt;a3 -->
<g id="edge9" class="edge">
<title>r1&#45;&gt;a3</title>
<path fill="none" stroke="black" d="M503.44,-132.78C506.54,-113.2 510.49,-88.26 513.42,-69.8"/>
<text text-anchor="middle" x="488.42" y="-72.8" font-family="Times,serif" font-size="10.00">assignments</text>
<text text-anchor="middle" x="492.44" y="-124.78" font-family="Times,serif" font-size="10.00">room</text>
</g>
<!-- a4 -->
<g id="node10" class="node">
<title>a4</title>
<polygon fill="none" stroke="black" points="591.5,-48 591.5,-65 673.5,-65 673.5,-48 591.5,-48"/>
<text text-anchor="start" x="600.5" y="-55" font-family="Times,serif" text-decoration="underline" font-size="10.00">a4 :Assignment</text>
<polygon fill="none" stroke="black" points="591.5,-20 591.5,-48 673.5,-48 673.5,-20 591.5,-20"/>
<text text-anchor="start" x="594.5" y="-37" font-family="Times,serif" font-size="10.00">points = 12.0</text>
<text text-anchor="start" x="594.5" y="-26" font-family="Times,serif" font-size="10.00">task = &quot;sculptures&quot;</text>
</g>
<!-- r1&#45;&gt;a4 -->
<g id="edge10" class="edge">
<title>r1&#45;&gt;a4</title>
<path fill="none" stroke="black" d="M533.36,-132.78C555.23,-113.2 583.08,-88.26 603.69,-69.8"/>
<text text-anchor="middle" x="578.69" y="-72.8" font-family="Times,serif" font-size="10.00">assignments</text>
<text text-anchor="middle" x="522.36" y="-124.78" font-family="Times,serif" font-size="10.00">room</text>
</g>
<!-- alice&#45;&gt;bobby -->
<g id="edge13" class="edge">
<title>alice&#45;&gt;bobby</title>
<path fill="none" stroke="black" d="M340.23,-121.69C348.83,-110.22 358.15,-97.8 366.75,-86.33"/>
<text text-anchor="middle" x="352.75" y="-89.33" font-family="Times,serif" font-size="10.00">friends</text>
<text text-anchor="middle" x="326.23" y="-113.69" font-family="Times,serif" font-size="10.00">friends</text>
</g>
<!-- alice&#45;&gt;a -->
<g id="edge12" class="edge">
<title>alice&#45;&gt;a</title>
<path fill="none" stroke="black" d="M298.63,-121.69C294.57,-104.28 289.99,-84.69 286.46,-69.54"/>
<text text-anchor="middle" x="275.96" y="-72.54" font-family="Times,serif" font-size="10.00">done</text>
<text text-anchor="middle" x="281.63" y="-113.69" font-family="Times,serif" font-size="10.00">students</text>
</g>
</g>
</svg>
