<?xml version="1.0" encoding="UTF-8" standalone="no"?>
<!DOCTYPE svg PUBLIC "-//W3C//DTD SVG 1.1//EN"
 "http://www.w3.org/Graphics/SVG/1.1/DTD/svg11.dtd">
<!-- Generated by graphviz version 2.40.1 (20161225.0304)
 -->
<!-- Title: H Pages: 1 -->
<svg width="717pt" height="412pt"
 viewBox="0.00 0.00 717.00 412.00" xmlns="http://www.w3.org/2000/svg" xmlns:xlink="http://www.w3.org/1999/xlink">
<g id="graph0" class="graph" transform="scale(1 1) rotate(0) translate(4 408)">
<title>H</title>
<polygon fill="#ffffff" stroke="transparent" points="-4,4 -4,-408 713,-408 713,4 -4,4"/>
<!-- study_Right1 -->
<g id="node1" class="node">
<title>study_Right1</title>
<polygon fill="none" stroke="#000000" points="321,-382 321,-400 428,-400 428,-382 321,-382"/>
<text text-anchor="start" x="323.8065" y="-389" font-family="Times,serif" text-decoration="underline" font-size="10.00" fill="#000000">study_Right1 :University</text>
<polygon fill="none" stroke="#000000" points="321,-364 321,-382 428,-382 428,-364 321,-364"/>
<text text-anchor="start" x="327.7405" y="-370" font-family="Times,serif" font-size="10.00" fill="#000000"> &#160;name = &quot;Study Right&quot;</text>
</g>
<!-- r2 -->
<g id="node2" class="node">
<title>r2</title>
<polygon fill="none" stroke="#000000" points="410,-302 410,-320 504,-320 504,-302 410,-302"/>
<text text-anchor="start" x="437.972" y="-309" font-family="Times,serif" text-decoration="underline" font-size="10.00" fill="#000000">r2 :Room</text>
<polygon fill="none" stroke="#000000" points="410,-260 410,-302 504,-302 504,-260 410,-260"/>
<text text-anchor="start" x="413" y="-290" font-family="Times,serif" font-size="10.00" fill="#000000"> &#160;credits = 42.0</text>
<text text-anchor="start" x="413" y="-278" font-family="Times,serif" font-size="10.00" fill="#000000"> &#160;roomNo = &quot;wa1337&quot;</text>
<text text-anchor="start" x="413" y="-266" font-family="Times,serif" font-size="10.00" fill="#000000"> &#160;topic = &quot;Math&quot;</text>
</g>
<!-- study_Right1&#45;&gt;r2 -->
<g id="edge1" class="edge">
<title>study_Right1&#45;&gt;r2</title>
<path fill="none" stroke="#000000" d="M394.092,-359.7294C403.6873,-349.0936 415.3853,-336.1271 426.0791,-324.2738"/>
<text text-anchor="middle" x="413.5806" y="-327.2738" font-family="Times,serif" font-size="10.00" fill="#000000">rooms</text>
<text text-anchor="middle" x="387.7025" y="-350.7294" font-family="Times,serif" font-size="10.00" fill="#000000">uni</text>
</g>
<!-- r3 -->
<g id="node3" class="node">
<title>r3</title>
<polygon fill="none" stroke="#000000" points="144,-302 144,-320 238,-320 238,-302 144,-302"/>
<text text-anchor="start" x="171.972" y="-309" font-family="Times,serif" text-decoration="underline" font-size="10.00" fill="#000000">r3 :Room</text>
<polygon fill="none" stroke="#000000" points="144,-260 144,-302 238,-302 238,-260 144,-260"/>
<text text-anchor="start" x="147" y="-290" font-family="Times,serif" font-size="10.00" fill="#000000"> &#160;credits = 23.0</text>
<text text-anchor="start" x="147" y="-278" font-family="Times,serif" font-size="10.00" fill="#000000"> &#160;roomNo = &quot;wa1338&quot;</text>
<text text-anchor="start" x="147" y="-266" font-family="Times,serif" font-size="10.00" fill="#000000"> &#160;topic = &quot;Arts&quot;</text>
</g>
<!-- study_Right1&#45;&gt;r3 -->
<g id="edge2" class="edge">
<title>study_Right1&#45;&gt;r3</title>
<path fill="none" stroke="#000000" d="M330.1669,-359.9637C305.0008,-347.3119 273.1602,-331.3046 246.2881,-317.7951"/>
<text text-anchor="middle" x="258.7866" y="-320.7951" font-family="Times,serif" font-size="10.00" fill="#000000">rooms</text>
<text text-anchor="middle" x="323.7774" y="-350.9637" font-family="Times,serif" font-size="10.00" fill="#000000">uni</text>
</g>
<!-- alice4 -->
<g id="node4" class="node">
<title>alice4</title>
<polygon fill="none" stroke="#000000" points="327,-198 327,-216 421,-216 421,-198 327,-198"/>
<text text-anchor="start" x="344.145" y="-205" font-family="Times,serif" text-decoration="underline" font-size="10.00" fill="#000000">alice4 :Student</text>
<polygon fill="none" stroke="#000000" points="327,-132 327,-198 421,-198 421,-132 327,-132"/>
<text text-anchor="start" x="330" y="-186" font-family="Times,serif" font-size="10.00" fill="#000000"> &#160;credits = 0.0</text>
<text text-anchor="start" x="330" y="-174" font-family="Times,serif" font-size="10.00" fill="#000000"> &#160;motivation = 0.0</text>
<text text-anchor="start" x="330" y="-162" font-family="Times,serif" font-size="10.00" fill="#000000"> &#160;name = &quot;Alice&quot;</text>
<text text-anchor="start" x="330" y="-150" font-family="Times,serif" font-size="10.00" fill="#000000"> &#160;points = 0.0</text>
<text text-anchor="start" x="330" y="-138" font-family="Times,serif" font-size="10.00" fill="#000000"> &#160;studentId = &quot;m4242&quot;</text>
</g>
<!-- study_Right1&#45;&gt;alice4 -->
<g id="edge3" class="edge">
<title>study_Right1&#45;&gt;alice4</title>
<path fill="none" stroke="#000000" d="M374,-359.7404C374,-326.6231 374,-263.6327 374,-220.2588"/>
<text text-anchor="middle" x="357.6125" y="-223.2588" font-family="Times,serif" font-size="10.00" fill="#000000">students</text>
<text text-anchor="middle" x="367.6105" y="-350.7404" font-family="Times,serif" font-size="10.00" fill="#000000">uni</text>
</g>
<!-- bobby5 -->
<g id="node5" class="node">
<title>bobby5</title>
<polygon fill="none" stroke="#000000" points="8,-70 8,-88 102,-88 102,-70 8,-70"/>
<text text-anchor="start" x="22.0825" y="-77" font-family="Times,serif" text-decoration="underline" font-size="10.00" fill="#000000">bobby5 :Student</text>
<polygon fill="none" stroke="#000000" points="8,-4 8,-70 102,-70 102,-4 8,-4"/>
<text text-anchor="start" x="11" y="-58" font-family="Times,serif" font-size="10.00" fill="#000000"> &#160;credits = 0.0</text>
<text text-anchor="start" x="11" y="-46" font-family="Times,serif" font-size="10.00" fill="#000000"> &#160;motivation = 0.0</text>
<text text-anchor="start" x="11" y="-34" font-family="Times,serif" font-size="10.00" fill="#000000"> &#160;name = &quot;Bobby&quot;</text>
<text text-anchor="start" x="11" y="-22" font-family="Times,serif" font-size="10.00" fill="#000000"> &#160;points = 0.0</text>
<text text-anchor="start" x="11" y="-10" font-family="Times,serif" font-size="10.00" fill="#000000"> &#160;studentId = &quot;m2323&quot;</text>
</g>
<!-- study_Right1&#45;&gt;bobby5 -->
<g id="edge4" class="edge">
<title>study_Right1&#45;&gt;bobby5</title>
<path fill="none" stroke="#000000" d="M312.4358,-372.3645C249.662,-361.6979 157.3191,-343.4277 127,-324 77.6708,-292.391 65.0322,-275.41 46,-220 31.7027,-178.3751 36.5647,-127.8584 43.4258,-92.0035"/>
<text text-anchor="middle" x="27.0383" y="-95.0035" font-family="Times,serif" font-size="10.00" fill="#000000">students</text>
<text text-anchor="middle" x="306.0463" y="-375.3645" font-family="Times,serif" font-size="10.00" fill="#000000">uni</text>
</g>
<!-- carli6 -->
<g id="node6" class="node">
<title>carli6</title>
<polygon fill="none" stroke="#000000" points="607,-198 607,-216 701,-216 701,-198 607,-198"/>
<text text-anchor="start" x="624.7" y="-205" font-family="Times,serif" text-decoration="underline" font-size="10.00" fill="#000000">carli6 :Student</text>
<polygon fill="none" stroke="#000000" points="607,-132 607,-198 701,-198 701,-132 607,-132"/>
<text text-anchor="start" x="610" y="-186" font-family="Times,serif" font-size="10.00" fill="#000000"> &#160;credits = 0.0</text>
<text text-anchor="start" x="610" y="-174" font-family="Times,serif" font-size="10.00" fill="#000000"> &#160;motivation = 0.0</text>
<text text-anchor="start" x="610" y="-162" font-family="Times,serif" font-size="10.00" fill="#000000"> &#160;name = &quot;Carli&quot;</text>
<text text-anchor="start" x="610" y="-150" font-family="Times,serif" font-size="10.00" fill="#000000"> &#160;points = 0.0</text>
<text text-anchor="start" x="610" y="-138" font-family="Times,serif" font-size="10.00" fill="#000000"> &#160;studentId = &quot;m4646&quot;</text>
</g>
<!-- study_Right1&#45;&gt;carli6 -->
<g id="edge5" class="edge">
<title>study_Right1&#45;&gt;carli6</title>
<path fill="none" stroke="#000000" d="M435.8578,-364.8137C463.4218,-355.3957 495.3751,-341.9327 521,-324 561.349,-295.7632 597.7269,-252.914 622.1965,-220.2328"/>
<text text-anchor="middle" x="605.809" y="-223.2328" font-family="Times,serif" font-size="10.00" fill="#000000">students</text>
<text text-anchor="middle" x="442.2473" y="-367.8137" font-family="Times,serif" font-size="10.00" fill="#000000">uni</text>
</g>
<!-- r2&#45;&gt;alice4 -->
<g id="edge8" class="edge">
<title>r2&#45;&gt;alice4</title>
<path fill="none" stroke="#000000" d="M432.5462,-255.8236C424.6083,-244.7297 415.6635,-232.2285 407.1989,-220.3985"/>
<text text-anchor="middle" x="390.8114" y="-223.3985" font-family="Times,serif" font-size="10.00" fill="#000000">students</text>
<text text-anchor="middle" x="428.6567" y="-246.8236" font-family="Times,serif" font-size="10.00" fill="#000000">in</text>
</g>
<!-- r2&#45;&gt;carli6 -->
<g id="edge9" class="edge">
<title>r2&#45;&gt;carli6</title>
<path fill="none" stroke="#000000" d="M512.3104,-263.0618C536.5804,-250.6905 565.1444,-235.3707 590,-220 592.9095,-218.2008 595.861,-216.3143 598.8187,-214.3747"/>
<text text-anchor="middle" x="582.4312" y="-205.3747" font-family="Times,serif" font-size="10.00" fill="#000000">students</text>
<text text-anchor="middle" x="516.1999" y="-266.0618" font-family="Times,serif" font-size="10.00" fill="#000000">in</text>
</g>
<!-- a7 -->
<g id="node7" class="node">
<title>a7</title>
<polygon fill="none" stroke="#000000" points="375,-52 375,-70 455,-70 455,-52 375,-52"/>
<text text-anchor="start" x="383.7545" y="-59" font-family="Times,serif" text-decoration="underline" font-size="10.00" fill="#000000">a7 :Assignment</text>
<polygon fill="none" stroke="#000000" points="375,-22 375,-52 455,-52 455,-22 375,-22"/>
<text text-anchor="start" x="378" y="-40" font-family="Times,serif" font-size="10.00" fill="#000000"> &#160;points = 42.0</text>
<text text-anchor="start" x="378" y="-28" font-family="Times,serif" font-size="10.00" fill="#000000"> &#160;task = &quot;integrals&quot;</text>
</g>
<!-- r2&#45;&gt;a7 -->
<g id="edge6" class="edge">
<title>r2&#45;&gt;a7</title>
<path fill="none" stroke="#000000" d="M454.5663,-255.9389C451.8457,-222.9895 446.6467,-171.7543 438,-128 434.4169,-109.8688 428.8493,-89.8935 424.0895,-74.1978"/>
<text text-anchor="middle" x="448.5305" y="-77.1978" font-family="Times,serif" font-size="10.00" fill="#000000">assignments</text>
<text text-anchor="middle" x="444.0123" y="-246.9389" font-family="Times,serif" font-size="10.00" fill="#000000">room</text>
</g>
<!-- a8 -->
<g id="node8" class="node">
<title>a8</title>
<polygon fill="none" stroke="#000000" points="494,-180 494,-198 573,-198 573,-180 494,-180"/>
<text text-anchor="start" x="502.2545" y="-187" font-family="Times,serif" text-decoration="underline" font-size="10.00" fill="#000000">a8 :Assignment</text>
<polygon fill="none" stroke="#000000" points="494,-150 494,-180 573,-180 573,-150 494,-150"/>
<text text-anchor="start" x="497" y="-168" font-family="Times,serif" font-size="10.00" fill="#000000"> &#160;points = 23.0</text>
<text text-anchor="start" x="497" y="-156" font-family="Times,serif" font-size="10.00" fill="#000000"> &#160;task = &quot;matrices&quot;</text>
</g>
<!-- r2&#45;&gt;a8 -->
<g id="edge7" class="edge">
<title>r2&#45;&gt;a8</title>
<path fill="none" stroke="#000000" d="M479.3914,-255.8236C490.6005,-238.715 504.0026,-218.2591 514.6025,-202.0804"/>
<text text-anchor="middle" x="490.1615" y="-205.0804" font-family="Times,serif" font-size="10.00" fill="#000000">assignments</text>
<text text-anchor="middle" x="468.8374" y="-246.8236" font-family="Times,serif" font-size="10.00" fill="#000000">room</text>
</g>
<!-- r3&#45;&gt;bobby5 -->
<g id="edge12" class="edge">
<title>r3&#45;&gt;bobby5</title>
<path fill="none" stroke="#000000" d="M135.7793,-269.9525C112.9265,-258.7933 88.4383,-242.5159 74,-220 49.641,-182.0132 47.1489,-129.5477 49.3513,-92.1832"/>
<text text-anchor="middle" x="65.7388" y="-95.1832" font-family="Times,serif" font-size="10.00" fill="#000000">students</text>
<text text-anchor="middle" x="131.8898" y="-272.9525" font-family="Times,serif" font-size="10.00" fill="#000000">in</text>
</g>
<!-- a9 -->
<g id="node9" class="node">
<title>a9</title>
<polygon fill="none" stroke="#000000" points="91,-180 91,-198 173,-198 173,-180 91,-180"/>
<text text-anchor="start" x="100.7545" y="-187" font-family="Times,serif" text-decoration="underline" font-size="10.00" fill="#000000">a9 :Assignment</text>
<polygon fill="none" stroke="#000000" points="91,-150 91,-180 173,-180 173,-150 91,-150"/>
<text text-anchor="start" x="94" y="-168" font-family="Times,serif" font-size="10.00" fill="#000000"> &#160;points = 12.0</text>
<text text-anchor="start" x="94" y="-156" font-family="Times,serif" font-size="10.00" fill="#000000"> &#160;task = &quot;drawings&quot;</text>
</g>
<!-- r3&#45;&gt;a9 -->
<g id="edge10" class="edge">
<title>r3&#45;&gt;a9</title>
<path fill="none" stroke="#000000" d="M173.6172,-255.8236C164.9154,-238.715 154.5111,-218.2591 146.2823,-202.0804"/>
<text text-anchor="middle" x="121.8413" y="-205.0804" font-family="Times,serif" font-size="10.00" fill="#000000">assignments</text>
<text text-anchor="middle" x="163.0632" y="-246.8236" font-family="Times,serif" font-size="10.00" fill="#000000">room</text>
</g>
<!-- a10 -->
<g id="node10" class="node">
<title>a10</title>
<polygon fill="none" stroke="#000000" points="207,-180 207,-198 293,-198 293,-180 207,-180"/>
<text text-anchor="start" x="216.2545" y="-187" font-family="Times,serif" text-decoration="underline" font-size="10.00" fill="#000000">a10 :Assignment</text>
<polygon fill="none" stroke="#000000" points="207,-150 207,-180 293,-180 293,-150 207,-150"/>
<text text-anchor="start" x="210" y="-168" font-family="Times,serif" font-size="10.00" fill="#000000"> &#160;points = 12.0</text>
<text text-anchor="start" x="210" y="-156" font-family="Times,serif" font-size="10.00" fill="#000000"> &#160;task = &quot;sculptures&quot;</text>
</g>
<!-- r3&#45;&gt;a10 -->
<g id="edge11" class="edge">
<title>r3&#45;&gt;a10</title>
<path fill="none" stroke="#000000" d="M208.3828,-255.8236C217.0846,-238.715 227.4889,-218.2591 235.7177,-202.0804"/>
<text text-anchor="middle" x="211.2767" y="-205.0804" font-family="Times,serif" font-size="10.00" fill="#000000">assignments</text>
<text text-anchor="middle" x="197.8288" y="-246.8236" font-family="Times,serif" font-size="10.00" fill="#000000">room</text>
</g>
<!-- alice4&#45;&gt;bobby5 -->
<g id="edge14" class="edge">
<title>alice4&#45;&gt;bobby5</title>
<path fill="none" stroke="#000000" d="M318.8064,-132.7811C315.877,-131.0849 312.9321,-129.479 310,-128 244.605,-95.0147 163.1556,-71.5787 110.1591,-58.4272"/>
<text text-anchor="middle" x="124.0416" y="-61.4272" font-family="Times,serif" font-size="10.00" fill="#000000">friends</text>
<text text-anchor="middle" x="304.9239" y="-135.7811" font-family="Times,serif" font-size="10.00" fill="#000000">friends</text>
</g>
<!-- alice4&#45;&gt;a7 -->
<g id="edge13" class="edge">
<title>alice4&#45;&gt;a7</title>
<path fill="none" stroke="#000000" d="M388.8019,-127.7891C394.5363,-109.8867 400.9168,-89.9671 405.9453,-74.2684"/>
<text text-anchor="middle" x="396.2258" y="-77.2684" font-family="Times,serif" font-size="10.00" fill="#000000">done</text>
<text text-anchor="middle" x="372.4144" y="-118.7891" font-family="Times,serif" font-size="10.00" fill="#000000">students</text>
</g>
</g>
</svg>
