<?xml version="1.0" encoding="UTF-8" standalone="no"?>
<!DOCTYPE svg PUBLIC "-//W3C//DTD SVG 1.1//EN"
 "http://www.w3.org/Graphics/SVG/1.1/DTD/svg11.dtd">
<!-- Generated by graphviz version 2.38.0 (20140413.2041)
 -->
<!-- Title: H Pages: 1 -->
<svg width="721px" height="394px"
 viewBox="0.00 0.00 721.00 394.00" xmlns="http://www.w3.org/2000/svg" xmlns:xlink="http://www.w3.org/1999/xlink">
<g id="graph0" class="graph" transform="scale(1.0 1.0) rotate(0) translate(4 390)">
<title>H</title>
<polygon fill="white" stroke="none" points="-4,4 -4,-390 717,-390 717,4 -4,4"/>
<!-- study_Right -->
<g id="node1" class="node"><title>study_Right</title>
<polygon fill="none" stroke="black" points="369,-365 369,-382 469,-382 469,-365 369,-365"/>
<text text-anchor="start" x="372" y="-372" font-family="Times New Roman,serif" text-decoration="underline" font-size="10.00">study Right :University</text>
<polygon fill="none" stroke="black" points="369,-348 369,-365 469,-365 469,-348 369,-348"/>
<text text-anchor="start" x="372.5" y="-354" font-family="Times New Roman,serif" font-size="10.00"> &#160;name = &quot;Study Right&quot;</text>
</g>
<!-- r -->
<g id="node2" class="node"><title>r</title>
<polygon fill="none" stroke="black" points="415,-287 415,-304 506,-304 506,-287 415,-287"/>
<text text-anchor="start" x="445" y="-294" font-family="Times New Roman,serif" text-decoration="underline" font-size="10.00">r :Room</text>
<polygon fill="none" stroke="black" points="415,-248 415,-287 506,-287 506,-248 415,-248"/>
<text text-anchor="start" x="418" y="-276" font-family="Times New Roman,serif" font-size="10.00"> &#160;credits = 42.0</text>
<text text-anchor="start" x="418" y="-265" font-family="Times New Roman,serif" font-size="10.00"> &#160;roomNo = &quot;wa1337&quot;</text>
<text text-anchor="start" x="418" y="-254" font-family="Times New Roman,serif" font-size="10.00"> &#160;topic = &quot;Math&quot;</text>
</g>
<!-- study_Right&#45;&gt;r -->
<g id="edge1" class="edge"><title>study_Right&#45;&gt;r</title>
<path fill="none" stroke="black" d="M428.509,-343.822C433.477,-333.28 439.667,-320.145 445.242,-308.317"/>
<text text-anchor="middle" x="432.742" y="-311.317" font-family="Times New Roman,serif" font-size="10.00">rooms</text>
<text text-anchor="middle" x="422.009" y="-335.822" font-family="Times New Roman,serif" font-size="10.00">uni</text>
</g>
<!-- r1 -->
<g id="node3" class="node"><title>r1</title>
<polygon fill="none" stroke="black" points="148,-287 148,-304 239,-304 239,-287 148,-287"/>
<text text-anchor="start" x="175.5" y="-294" font-family="Times New Roman,serif" text-decoration="underline" font-size="10.00">r1 :Room</text>
<polygon fill="none" stroke="black" points="148,-248 148,-287 239,-287 239,-248 148,-248"/>
<text text-anchor="start" x="151" y="-276" font-family="Times New Roman,serif" font-size="10.00"> &#160;credits = 23.0</text>
<text text-anchor="start" x="151" y="-265" font-family="Times New Roman,serif" font-size="10.00"> &#160;roomNo = &quot;wa1338&quot;</text>
<text text-anchor="start" x="151" y="-254" font-family="Times New Roman,serif" font-size="10.00"> &#160;topic = &quot;Arts&quot;</text>
</g>
<!-- study_Right&#45;&gt;r1 -->
<g id="edge2" class="edge"><title>study_Right&#45;&gt;r1</title>
<path fill="none" stroke="black" d="M366.867,-343.931C330.888,-330.081 283.176,-311.714 246.834,-297.724"/>
<text text-anchor="middle" x="259.334" y="-300.724" font-family="Times New Roman,serif" font-size="10.00">rooms</text>
<text text-anchor="middle" x="360.367" y="-335.931" font-family="Times New Roman,serif" font-size="10.00">uni</text>
</g>
<!-- r2 -->
<g id="node4" class="node"><title>r2</title>
<polygon fill="none" stroke="black" points="579,-287 579,-304 670,-304 670,-287 579,-287"/>
<text text-anchor="start" x="606.5" y="-294" font-family="Times New Roman,serif" text-decoration="underline" font-size="10.00">r2 :Room</text>
<polygon fill="none" stroke="black" points="579,-248 579,-287 670,-287 670,-248 579,-248"/>
<text text-anchor="start" x="582" y="-276" font-family="Times New Roman,serif" font-size="10.00"> &#160;credits = 0.0</text>
<text text-anchor="start" x="582" y="-265" font-family="Times New Roman,serif" font-size="10.00"> &#160;roomNo = &quot;wa1339&quot;</text>
<text text-anchor="start" x="582" y="-254" font-family="Times New Roman,serif" font-size="10.00"> &#160;topic = &quot;Football&quot;</text>
</g>
<!-- study_Right&#45;&gt;r2 -->
<g id="edge3" class="edge"><title>study_Right&#45;&gt;r2</title>
<path fill="none" stroke="black" d="M469.303,-343.994C495.293,-333.518 527.46,-320.333 556,-308 560.645,-305.993 565.453,-303.878 570.266,-301.734"/>
<text text-anchor="middle" x="557.766" y="-304.734" font-family="Times New Roman,serif" font-size="10.00">rooms</text>
<text text-anchor="middle" x="475.803" y="-335.994" font-family="Times New Roman,serif" font-size="10.00">uni</text>
</g>
<!-- alice -->
<g id="node5" class="node"><title>alice</title>
<polygon fill="none" stroke="black" points="331,-187 331,-204 425,-204 425,-187 331,-187"/>
<text text-anchor="start" x="350.5" y="-194" font-family="Times New Roman,serif" text-decoration="underline" font-size="10.00">alice :Student</text>
<polygon fill="none" stroke="black" points="331,-126 331,-187 425,-187 425,-126 331,-126"/>
<text text-anchor="start" x="334" y="-176" font-family="Times New Roman,serif" font-size="10.00"> &#160;credits = 0.0</text>
<text text-anchor="start" x="334" y="-165" font-family="Times New Roman,serif" font-size="10.00"> &#160;motivation = 0.0</text>
<text text-anchor="start" x="334" y="-154" font-family="Times New Roman,serif" font-size="10.00"> &#160;name = &quot;Alice&quot;</text>
<text text-anchor="start" x="334" y="-143" font-family="Times New Roman,serif" font-size="10.00"> &#160;points = 0.0</text>
<text text-anchor="start" x="334" y="-132" font-family="Times New Roman,serif" font-size="10.00"> &#160;studentId = &quot;m4242&quot;</text>
</g>
<!-- study_Right&#45;&gt;alice -->
<g id="edge4" class="edge"><title>study_Right&#45;&gt;alice</title>
<path fill="none" stroke="black" d="M409.745,-343.912C405.26,-333.414 400.172,-320.235 397,-308 388.448,-275.015 383.608,-236.667 380.956,-208.142"/>
<text text-anchor="middle" x="362.956" y="-211.142" font-family="Times New Roman,serif" font-size="10.00">students</text>
<text text-anchor="middle" x="403.245" y="-335.912" font-family="Times New Roman,serif" font-size="10.00">uni</text>
</g>
<!-- bobby -->
<g id="node6" class="node"><title>bobby</title>
<polygon fill="none" stroke="black" points="8,-65 8,-82 102,-82 102,-65 8,-65"/>
<text text-anchor="start" x="23.5" y="-72" font-family="Times New Roman,serif" text-decoration="underline" font-size="10.00">bobby :Student</text>
<polygon fill="none" stroke="black" points="8,-4 8,-65 102,-65 102,-4 8,-4"/>
<text text-anchor="start" x="11" y="-54" font-family="Times New Roman,serif" font-size="10.00"> &#160;credits = 0.0</text>
<text text-anchor="start" x="11" y="-43" font-family="Times New Roman,serif" font-size="10.00"> &#160;motivation = 0.0</text>
<text text-anchor="start" x="11" y="-32" font-family="Times New Roman,serif" font-size="10.00"> &#160;name = &quot;Bobby&quot;</text>
<text text-anchor="start" x="11" y="-21" font-family="Times New Roman,serif" font-size="10.00"> &#160;points = 0.0</text>
<text text-anchor="start" x="11" y="-10" font-family="Times New Roman,serif" font-size="10.00"> &#160;studentId = &quot;m2323&quot;</text>
</g>
<!-- study_Right&#45;&gt;bobby -->
<g id="edge5" class="edge"><title>study_Right&#45;&gt;bobby</title>
<path fill="none" stroke="black" d="M360.718,-363.922C299.332,-361.393 201.801,-350.24 130,-308 79.9713,-278.568 65.8666,-262.538 46,-208 31.6043,-168.481 36.7852,-120.057 43.7627,-86.11"/>
<text text-anchor="middle" x="25.7627" y="-89.11" font-family="Times New Roman,serif" font-size="10.00">students</text>
<text text-anchor="middle" x="354.218" y="-366.922" font-family="Times New Roman,serif" font-size="10.00">uni</text>
</g>
<!-- carli -->
<g id="node7" class="node"><title>carli</title>
<polygon fill="none" stroke="black" points="611,-187 611,-204 705,-204 705,-187 611,-187"/>
<text text-anchor="start" x="631.5" y="-194" font-family="Times New Roman,serif" text-decoration="underline" font-size="10.00">carli :Student</text>
<polygon fill="none" stroke="black" points="611,-126 611,-187 705,-187 705,-126 611,-126"/>
<text text-anchor="start" x="614" y="-176" font-family="Times New Roman,serif" font-size="10.00"> &#160;credits = 0.0</text>
<text text-anchor="start" x="614" y="-165" font-family="Times New Roman,serif" font-size="10.00"> &#160;motivation = 0.0</text>
<text text-anchor="start" x="614" y="-154" font-family="Times New Roman,serif" font-size="10.00"> &#160;name = &quot;Carli&quot;</text>
<text text-anchor="start" x="614" y="-143" font-family="Times New Roman,serif" font-size="10.00"> &#160;points = 0.0</text>
<text text-anchor="start" x="614" y="-132" font-family="Times New Roman,serif" font-size="10.00"> &#160;studentId = &quot;m2323&quot;</text>
</g>
<!-- study_Right&#45;&gt;carli -->
<g id="edge6" class="edge"><title>study_Right&#45;&gt;carli</title>
<path fill="none" stroke="black" d="M467.726,-343.952C486.121,-334.815 506.363,-322.717 522,-308 546.426,-285.011 539.793,-269.139 562,-244 574.084,-230.32 588.728,-217.125 602.898,-205.601"/>
<text text-anchor="middle" x="584.898" y="-208.601" font-family="Times New Roman,serif" font-size="10.00">students</text>
<text text-anchor="middle" x="461.226" y="-335.952" font-family="Times New Roman,serif" font-size="10.00">uni</text>
</g>
<!-- r&#45;&gt;alice -->
<g id="edge9" class="edge"><title>r&#45;&gt;alice</title>
<path fill="none" stroke="black" d="M436.502,-243.765C428.173,-232.693 418.657,-220.044 409.755,-208.21"/>
<text text-anchor="middle" x="427.755" y="-211.21" font-family="Times New Roman,serif" font-size="10.00">students</text>
<text text-anchor="middle" x="432.502" y="-235.765" font-family="Times New Roman,serif" font-size="10.00">in</text>
</g>
<!-- r&#45;&gt;carli -->
<g id="edge10" class="edge"><title>r&#45;&gt;carli</title>
<path fill="none" stroke="black" d="M513.578,-249.992C538.401,-237.955 568.075,-222.919 594,-208 596.88,-206.343 599.807,-204.609 602.746,-202.829"/>
<text text-anchor="middle" x="584.746" y="-194.829" font-family="Times New Roman,serif" font-size="10.00">students</text>
<text text-anchor="middle" x="517.578" y="-252.992" font-family="Times New Roman,serif" font-size="10.00">in</text>
</g>
<!-- a -->
<g id="node8" class="node"><title>a</title>
<polygon fill="none" stroke="black" points="379,-48 379,-65 460,-65 460,-48 379,-48"/>
<text text-anchor="start" x="390.5" y="-55" font-family="Times New Roman,serif" text-decoration="underline" font-size="10.00">a :Assignment</text>
<polygon fill="none" stroke="black" points="379,-20 379,-48 460,-48 460,-20 379,-20"/>
<text text-anchor="start" x="382" y="-37" font-family="Times New Roman,serif" font-size="10.00"> &#160;points = 42.0</text>
<text text-anchor="start" x="382" y="-26" font-family="Times New Roman,serif" font-size="10.00"> &#160;task = &quot;integrals&quot;</text>
</g>
<!-- r&#45;&gt;a -->
<g id="edge7" class="edge"><title>r&#45;&gt;a</title>
<path fill="none" stroke="black" d="M457.902,-243.985C455.438,-212.9 450.556,-163.793 442,-122 438.376,-104.296 432.626,-84.796 427.782,-69.722"/>
<text text-anchor="middle" x="402.282" y="-72.722" font-family="Times New Roman,serif" font-size="10.00">assignments</text>
<text text-anchor="middle" x="447.402" y="-235.985" font-family="Times New Roman,serif" font-size="10.00">room</text>
</g>
<!-- a3 -->
<g id="node9" class="node"><title>a3</title>
<polygon fill="none" stroke="black" points="498,-170 498,-187 577,-187 577,-170 498,-170"/>
<text text-anchor="start" x="506" y="-177" font-family="Times New Roman,serif" text-decoration="underline" font-size="10.00">a3 :Assignment</text>
<polygon fill="none" stroke="black" points="498,-142 498,-170 577,-170 577,-142 498,-142"/>
<text text-anchor="start" x="501" y="-159" font-family="Times New Roman,serif" font-size="10.00"> &#160;points = 23.0</text>
<text text-anchor="start" x="501" y="-148" font-family="Times New Roman,serif" font-size="10.00"> &#160;task = &quot;matrices&quot;</text>
</g>
<!-- r&#45;&gt;a3 -->
<g id="edge8" class="edge"><title>r&#45;&gt;a3</title>
<path fill="none" stroke="black" d="M482.065,-243.765C493.708,-227.283 507.821,-207.306 518.826,-191.727"/>
<text text-anchor="middle" x="493.326" y="-194.727" font-family="Times New Roman,serif" font-size="10.00">assignments</text>
<text text-anchor="middle" x="471.565" y="-235.765" font-family="Times New Roman,serif" font-size="10.00">room</text>
</g>
<!-- r1&#45;&gt;bobby -->
<g id="edge13" class="edge"><title>r1&#45;&gt;bobby</title>
<path fill="none" stroke="black" d="M139.431,-257.624C115.533,-247.081 89.3566,-231.101 74,-208 50.1194,-172.076 47.7505,-121.71 49.8537,-86.2981"/>
<text text-anchor="middle" x="67.8537" y="-89.2981" font-family="Times New Roman,serif" font-size="10.00">students</text>
<text text-anchor="middle" x="135.431" y="-260.624" font-family="Times New Roman,serif" font-size="10.00">in</text>
</g>
<!-- a4 -->
<g id="node10" class="node"><title>a4</title>
<polygon fill="none" stroke="black" points="92,-170 92,-187 175,-187 175,-170 92,-170"/>
<text text-anchor="start" x="102" y="-177" font-family="Times New Roman,serif" text-decoration="underline" font-size="10.00">a4 :Assignment</text>
<polygon fill="none" stroke="black" points="92,-142 92,-170 175,-170 175,-142 92,-142"/>
<text text-anchor="start" x="95" y="-159" font-family="Times New Roman,serif" font-size="10.00"> &#160;points = 12.0</text>
<text text-anchor="start" x="95" y="-148" font-family="Times New Roman,serif" font-size="10.00"> &#160;task = &quot;drawings&quot;</text>
</g>
<!-- r1&#45;&gt;a4 -->
<g id="edge11" class="edge"><title>r1&#45;&gt;a4</title>
<path fill="none" stroke="black" d="M175.806,-243.765C166.734,-227.283 155.737,-207.306 147.162,-191.727"/>
<text text-anchor="middle" x="121.662" y="-194.727" font-family="Times New Roman,serif" font-size="10.00">assignments</text>
<text text-anchor="middle" x="165.306" y="-235.765" font-family="Times New Roman,serif" font-size="10.00">room</text>
</g>
<!-- a5 -->
<g id="node11" class="node"><title>a5</title>
<polygon fill="none" stroke="black" points="209,-170 209,-187 297,-187 297,-170 209,-170"/>
<text text-anchor="start" x="221.5" y="-177" font-family="Times New Roman,serif" text-decoration="underline" font-size="10.00">a5 :Assignment</text>
<polygon fill="none" stroke="black" points="209,-142 209,-170 297,-170 297,-142 209,-142"/>
<text text-anchor="start" x="212" y="-159" font-family="Times New Roman,serif" font-size="10.00"> &#160;points = 12.0</text>
<text text-anchor="start" x="212" y="-148" font-family="Times New Roman,serif" font-size="10.00"> &#160;task = &quot;sculptures&quot;</text>
</g>
<!-- r1&#45;&gt;a5 -->
<g id="edge12" class="edge"><title>r1&#45;&gt;a5</title>
<path fill="none" stroke="black" d="M210.194,-243.765C219.266,-227.283 230.263,-207.306 238.838,-191.727"/>
<text text-anchor="middle" x="213.338" y="-194.727" font-family="Times New Roman,serif" font-size="10.00">assignments</text>
<text text-anchor="middle" x="199.694" y="-235.765" font-family="Times New Roman,serif" font-size="10.00">room</text>
</g>
<!-- alice&#45;&gt;bobby -->
<g id="edge15" class="edge"><title>alice&#45;&gt;bobby</title>
<path fill="none" stroke="black" d="M322.703,-126.362C319.801,-124.814 316.89,-123.349 314,-122 246.764,-90.6225 163.864,-68.2648 110.247,-55.7454"/>
<text text-anchor="middle" x="124.247" y="-58.7454" font-family="Times New Roman,serif" font-size="10.00">friends</text>
<text text-anchor="middle" x="308.703" y="-129.362" font-family="Times New Roman,serif" font-size="10.00">friends</text>
</g>
<!-- alice&#45;&gt;a -->
<g id="edge14" class="edge"><title>alice&#45;&gt;a</title>
<path fill="none" stroke="black" d="M392.455,-121.692C398.403,-104.283 405.097,-84.6914 410.275,-69.5373"/>
<text text-anchor="middle" x="420.775" y="-72.5373" font-family="Times New Roman,serif" font-size="10.00">done</text>
<text text-anchor="middle" x="374.455" y="-113.692" font-family="Times New Roman,serif" font-size="10.00">students</text>
</g>
</g>
</svg>
