<?xml version="1.0" encoding="UTF-8" standalone="no"?>
<!DOCTYPE svg PUBLIC "-//W3C//DTD SVG 1.1//EN"
 "http://www.w3.org/Graphics/SVG/1.1/DTD/svg11.dtd">
<!-- Generated by graphviz version 2.47.1 (20210417.1919)
 -->
<!-- Title: uniks.studyright.model Pages: 1 -->
<svg width="700px" height="394px"
 viewBox="0.00 0.00 700.00 394.00" xmlns="http://www.w3.org/2000/svg" xmlns:xlink="http://www.w3.org/1999/xlink">
<g id="graph0" class="graph" transform="scale(1.0 1.0) rotate(0) translate(4 390)">
<title>uniks.studyright.model</title>
<polygon fill="white" stroke="transparent" points="-4,4 -4,-390 696,-390 696,4 -4,4"/>
<!-- study_Right -->
<g id="node1" class="node">
<title>study_Right</title>
<polygon fill="none" stroke="black" points="355.5,-365 355.5,-382 458.5,-382 458.5,-365 355.5,-365"/>
<text text-anchor="start" x="358.5" y="-372" font-family="Times,serif" text-decoration="underline" font-size="10.00">study Right :University</text>
<polygon fill="none" stroke="black" points="355.5,-348 355.5,-365 458.5,-365 458.5,-348 355.5,-348"/>
<text text-anchor="start" x="362" y="-354" font-family="Times,serif" font-size="10.00">name = &quot;Study Right&quot;</text>
</g>
<!-- r -->
<g id="node2" class="node">
<title>r</title>
<polygon fill="none" stroke="black" points="402.5,-287 402.5,-304 493.5,-304 493.5,-287 402.5,-287"/>
<text text-anchor="start" x="431" y="-294" font-family="Times,serif" text-decoration="underline" font-size="10.00">r :Room</text>
<polygon fill="none" stroke="black" points="402.5,-248 402.5,-287 493.5,-287 493.5,-248 402.5,-248"/>
<text text-anchor="start" x="405.5" y="-276" font-family="Times,serif" font-size="10.00">credits = 42.0</text>
<text text-anchor="start" x="405.5" y="-265" font-family="Times,serif" font-size="10.00">roomNo = &quot;wa1337&quot;</text>
<text text-anchor="start" x="405.5" y="-254" font-family="Times,serif" font-size="10.00">topic = &quot;Math&quot;</text>
</g>
<!-- study_Right&#45;&gt;r -->
<g id="edge1" class="edge">
<title>study_Right&#45;&gt;r</title>
<path fill="none" stroke="black" d="M416.01,-343.82C420.98,-333.28 427.17,-320.15 432.74,-308.32"/>
<text text-anchor="middle" x="420.24" y="-311.32" font-family="Times,serif" font-size="10.00">rooms</text>
<text text-anchor="middle" x="409.01" y="-335.82" font-family="Times,serif" font-size="10.00">uni</text>
</g>
<!-- r1 -->
<g id="node3" class="node">
<title>r1</title>
<polygon fill="none" stroke="black" points="142.5,-287 142.5,-304 233.5,-304 233.5,-287 142.5,-287"/>
<text text-anchor="start" x="168.5" y="-294" font-family="Times,serif" text-decoration="underline" font-size="10.00">r1 :Room</text>
<polygon fill="none" stroke="black" points="142.5,-248 142.5,-287 233.5,-287 233.5,-248 142.5,-248"/>
<text text-anchor="start" x="145.5" y="-276" font-family="Times,serif" font-size="10.00">credits = 23.0</text>
<text text-anchor="start" x="145.5" y="-265" font-family="Times,serif" font-size="10.00">roomNo = &quot;wa1338&quot;</text>
<text text-anchor="start" x="145.5" y="-254" font-family="Times,serif" font-size="10.00">topic = &quot;Arts&quot;</text>
</g>
<!-- study_Right&#45;&gt;r1 -->
<g id="edge2" class="edge">
<title>study_Right&#45;&gt;r1</title>
<path fill="none" stroke="black" d="M355.98,-343.93C321.62,-330.28 276.22,-312.25 241.2,-298.33"/>
<text text-anchor="middle" x="253.7" y="-301.33" font-family="Times,serif" font-size="10.00">rooms</text>
<text text-anchor="middle" x="348.98" y="-335.93" font-family="Times,serif" font-size="10.00">uni</text>
</g>
<!-- r2 -->
<g id="node4" class="node">
<title>r2</title>
<polygon fill="none" stroke="black" points="566.5,-287 566.5,-304 657.5,-304 657.5,-287 566.5,-287"/>
<text text-anchor="start" x="592.5" y="-294" font-family="Times,serif" text-decoration="underline" font-size="10.00">r2 :Room</text>
<polygon fill="none" stroke="black" points="566.5,-248 566.5,-287 657.5,-287 657.5,-248 566.5,-248"/>
<text text-anchor="start" x="569.5" y="-276" font-family="Times,serif" font-size="10.00">credits = 0.0</text>
<text text-anchor="start" x="569.5" y="-265" font-family="Times,serif" font-size="10.00">roomNo = &quot;wa1339&quot;</text>
<text text-anchor="start" x="569.5" y="-254" font-family="Times,serif" font-size="10.00">topic = &quot;Football&quot;</text>
</g>
<!-- study_Right&#45;&gt;r2 -->
<g id="edge3" class="edge">
<title>study_Right&#45;&gt;r2</title>
<path fill="none" stroke="black" d="M456.8,-343.99C482.79,-333.52 514.96,-320.33 543.5,-308 548.14,-305.99 552.95,-303.88 557.77,-301.73"/>
<text text-anchor="middle" x="545.27" y="-304.73" font-family="Times,serif" font-size="10.00">rooms</text>
<text text-anchor="middle" x="449.8" y="-335.99" font-family="Times,serif" font-size="10.00">uni</text>
</g>
<!-- alice -->
<g id="node5" class="node">
<title>alice</title>
<polygon fill="none" stroke="black" points="320.5,-187 320.5,-204 411.5,-204 411.5,-187 320.5,-187"/>
<text text-anchor="start" x="337.5" y="-194" font-family="Times,serif" text-decoration="underline" font-size="10.00">alice :Student</text>
<polygon fill="none" stroke="black" points="320.5,-126 320.5,-187 411.5,-187 411.5,-126 320.5,-126"/>
<text text-anchor="start" x="323.5" y="-176" font-family="Times,serif" font-size="10.00">credits = 0.0</text>
<text text-anchor="start" x="323.5" y="-165" font-family="Times,serif" font-size="10.00">motivation = 0.0</text>
<text text-anchor="start" x="323.5" y="-154" font-family="Times,serif" font-size="10.00">name = &quot;Alice&quot;</text>
<text text-anchor="start" x="323.5" y="-143" font-family="Times,serif" font-size="10.00">points = 0.0</text>
<text text-anchor="start" x="323.5" y="-132" font-family="Times,serif" font-size="10.00">studentId = &quot;m4242&quot;</text>
</g>
<!-- study_Right&#45;&gt;alice -->
<g id="edge4" class="edge">
<title>study_Right&#45;&gt;alice</title>
<path fill="none" stroke="black" d="M397.73,-343.86C393.46,-333.35 388.6,-320.18 385.5,-308 377.08,-274.95 371.95,-236.6 368.99,-208.1"/>
<text text-anchor="middle" x="351.99" y="-211.1" font-family="Times,serif" font-size="10.00">students</text>
<text text-anchor="middle" x="390.73" y="-335.86" font-family="Times,serif" font-size="10.00">uni</text>
</g>
<!-- bobby -->
<g id="node6" class="node">
<title>bobby</title>
<polygon fill="none" stroke="black" points="8.5,-65 8.5,-82 99.5,-82 99.5,-65 8.5,-65"/>
<text text-anchor="start" x="22" y="-72" font-family="Times,serif" text-decoration="underline" font-size="10.00">bobby :Student</text>
<polygon fill="none" stroke="black" points="8.5,-4 8.5,-65 99.5,-65 99.5,-4 8.5,-4"/>
<text text-anchor="start" x="11.5" y="-54" font-family="Times,serif" font-size="10.00">credits = 0.0</text>
<text text-anchor="start" x="11.5" y="-43" font-family="Times,serif" font-size="10.00">motivation = 0.0</text>
<text text-anchor="start" x="11.5" y="-32" font-family="Times,serif" font-size="10.00">name = &quot;Bobby&quot;</text>
<text text-anchor="start" x="11.5" y="-21" font-family="Times,serif" font-size="10.00">points = 0.0</text>
<text text-anchor="start" x="11.5" y="-10" font-family="Times,serif" font-size="10.00">studentId = &quot;m2323&quot;</text>
</g>
<!-- study_Right&#45;&gt;bobby -->
<g id="edge5" class="edge">
<title>study_Right&#45;&gt;bobby</title>
<path fill="none" stroke="black" d="M346.91,-363.82C286.72,-361.09 193.07,-349.67 124.5,-308 75.86,-278.44 63.34,-261.71 44.5,-208 30.58,-168.31 35.69,-119.91 42.52,-86.02"/>
<text text-anchor="middle" x="25.52" y="-89.02" font-family="Times,serif" font-size="10.00">students</text>
<text text-anchor="middle" x="339.91" y="-366.82" font-family="Times,serif" font-size="10.00">uni</text>
</g>
<!-- carli -->
<g id="node7" class="node">
<title>carli</title>
<polygon fill="none" stroke="black" points="593.5,-187 593.5,-204 684.5,-204 684.5,-187 593.5,-187"/>
<text text-anchor="start" x="611.5" y="-194" font-family="Times,serif" text-decoration="underline" font-size="10.00">carli :Student</text>
<polygon fill="none" stroke="black" points="593.5,-126 593.5,-187 684.5,-187 684.5,-126 593.5,-126"/>
<text text-anchor="start" x="596.5" y="-176" font-family="Times,serif" font-size="10.00">credits = 0.0</text>
<text text-anchor="start" x="596.5" y="-165" font-family="Times,serif" font-size="10.00">motivation = 0.0</text>
<text text-anchor="start" x="596.5" y="-154" font-family="Times,serif" font-size="10.00">name = &quot;Carli&quot;</text>
<text text-anchor="start" x="596.5" y="-143" font-family="Times,serif" font-size="10.00">points = 0.0</text>
<text text-anchor="start" x="596.5" y="-132" font-family="Times,serif" font-size="10.00">studentId = &quot;m2323&quot;</text>
</g>
<!-- study_Right&#45;&gt;carli -->
<g id="edge6" class="edge">
<title>study_Right&#45;&gt;carli</title>
<path fill="none" stroke="black" d="M456.06,-344C474.57,-334.9 494.87,-322.81 510.5,-308 534.67,-285.08 528.06,-269.49 549.5,-244 560.08,-231.42 572.74,-219.09 585.14,-208.07"/>
<text text-anchor="middle" x="568.14" y="-211.07" font-family="Times,serif" font-size="10.00">students</text>
<text text-anchor="middle" x="463.06" y="-336" font-family="Times,serif" font-size="10.00">uni</text>
</g>
<!-- r&#45;&gt;alice -->
<g id="edge9" class="edge">
<title>r&#45;&gt;alice</title>
<path fill="none" stroke="black" d="M424,-243.76C415.67,-232.69 406.16,-220.04 397.25,-208.21"/>
<text text-anchor="middle" x="414.25" y="-211.21" font-family="Times,serif" font-size="10.00">students</text>
<text text-anchor="middle" x="419.5" y="-235.76" font-family="Times,serif" font-size="10.00">in</text>
</g>
<!-- r&#45;&gt;carli -->
<g id="edge10" class="edge">
<title>r&#45;&gt;carli</title>
<path fill="none" stroke="black" d="M501.3,-248.82C524.74,-236.97 552.33,-222.4 576.5,-208 579.29,-206.34 582.13,-204.6 584.98,-202.81"/>
<text text-anchor="middle" x="567.98" y="-194.81" font-family="Times,serif" font-size="10.00">students</text>
<text text-anchor="middle" x="505.8" y="-251.82" font-family="Times,serif" font-size="10.00">in</text>
</g>
<!-- a -->
<g id="node8" class="node">
<title>a</title>
<polygon fill="none" stroke="black" points="368.5,-48 368.5,-65 444.5,-65 444.5,-48 368.5,-48"/>
<text text-anchor="start" x="377" y="-55" font-family="Times,serif" text-decoration="underline" font-size="10.00">a :Assignment</text>
<polygon fill="none" stroke="black" points="368.5,-20 368.5,-48 444.5,-48 444.5,-20 368.5,-20"/>
<text text-anchor="start" x="371.5" y="-37" font-family="Times,serif" font-size="10.00">points = 42.0</text>
<text text-anchor="start" x="371.5" y="-26" font-family="Times,serif" font-size="10.00">task = &quot;integrals&quot;</text>
</g>
<!-- r&#45;&gt;a -->
<g id="edge7" class="edge">
<title>r&#45;&gt;a</title>
<path fill="none" stroke="black" d="M445.01,-243.72C442.21,-212.63 436.92,-163.72 428.5,-122 424.94,-104.35 419.44,-84.85 414.83,-69.76"/>
<text text-anchor="middle" x="389.83" y="-72.76" font-family="Times,serif" font-size="10.00">assignments</text>
<text text-anchor="middle" x="456.01" y="-235.72" font-family="Times,serif" font-size="10.00">room</text>
</g>
<!-- a3 -->
<g id="node9" class="node">
<title>a3</title>
<polygon fill="none" stroke="black" points="484.5,-170 484.5,-187 559.5,-187 559.5,-170 484.5,-170"/>
<text text-anchor="start" x="490" y="-177" font-family="Times,serif" text-decoration="underline" font-size="10.00">a3 :Assignment</text>
<polygon fill="none" stroke="black" points="484.5,-142 484.5,-170 559.5,-170 559.5,-142 484.5,-142"/>
<text text-anchor="start" x="487.5" y="-159" font-family="Times,serif" font-size="10.00">points = 23.0</text>
<text text-anchor="start" x="487.5" y="-148" font-family="Times,serif" font-size="10.00">task = &quot;matrices&quot;</text>
</g>
<!-- r&#45;&gt;a3 -->
<g id="edge8" class="edge">
<title>r&#45;&gt;a3</title>
<path fill="none" stroke="black" d="M468.71,-243.76C479.9,-227.28 493.46,-207.31 504.03,-191.73"/>
<text text-anchor="middle" x="479.03" y="-194.73" font-family="Times,serif" font-size="10.00">assignments</text>
<text text-anchor="middle" x="479.71" y="-235.76" font-family="Times,serif" font-size="10.00">room</text>
</g>
<!-- r1&#45;&gt;bobby -->
<g id="edge13" class="edge">
<title>r1&#45;&gt;bobby</title>
<path fill="none" stroke="black" d="M133.91,-256.37C111.3,-245.74 86.92,-230.04 72.5,-208 48.88,-171.9 46.47,-121.57 48.49,-86.21"/>
<text text-anchor="middle" x="65.49" y="-89.21" font-family="Times,serif" font-size="10.00">students</text>
<text text-anchor="middle" x="129.41" y="-259.37" font-family="Times,serif" font-size="10.00">in</text>
</g>
<!-- a4 -->
<g id="node10" class="node">
<title>a4</title>
<polygon fill="none" stroke="black" points="90.5,-170 90.5,-187 169.5,-187 169.5,-170 90.5,-170"/>
<text text-anchor="start" x="98" y="-177" font-family="Times,serif" text-decoration="underline" font-size="10.00">a4 :Assignment</text>
<polygon fill="none" stroke="black" points="90.5,-142 90.5,-170 169.5,-170 169.5,-142 90.5,-142"/>
<text text-anchor="start" x="93.5" y="-159" font-family="Times,serif" font-size="10.00">points = 12.0</text>
<text text-anchor="start" x="93.5" y="-148" font-family="Times,serif" font-size="10.00">task = &quot;drawings&quot;</text>
</g>
<!-- r1&#45;&gt;a4 -->
<g id="edge11" class="edge">
<title>r1&#45;&gt;a4</title>
<path fill="none" stroke="black" d="M170.88,-243.76C162.11,-227.28 151.48,-207.31 143.19,-191.73"/>
<text text-anchor="middle" x="118.19" y="-194.73" font-family="Times,serif" font-size="10.00">assignments</text>
<text text-anchor="middle" x="159.88" y="-235.76" font-family="Times,serif" font-size="10.00">room</text>
</g>
<!-- a5 -->
<g id="node11" class="node">
<title>a5</title>
<polygon fill="none" stroke="black" points="203.5,-170 203.5,-187 285.5,-187 285.5,-170 203.5,-170"/>
<text text-anchor="start" x="212.5" y="-177" font-family="Times,serif" text-decoration="underline" font-size="10.00">a5 :Assignment</text>
<polygon fill="none" stroke="black" points="203.5,-142 203.5,-170 285.5,-170 285.5,-142 203.5,-142"/>
<text text-anchor="start" x="206.5" y="-159" font-family="Times,serif" font-size="10.00">points = 12.0</text>
<text text-anchor="start" x="206.5" y="-148" font-family="Times,serif" font-size="10.00">task = &quot;sculptures&quot;</text>
</g>
<!-- r1&#45;&gt;a5 -->
<g id="edge12" class="edge">
<title>r1&#45;&gt;a5</title>
<path fill="none" stroke="black" d="M203.83,-243.76C212.45,-227.28 222.9,-207.31 231.05,-191.73"/>
<text text-anchor="middle" x="206.05" y="-194.73" font-family="Times,serif" font-size="10.00">assignments</text>
<text text-anchor="middle" x="192.83" y="-235.76" font-family="Times,serif" font-size="10.00">room</text>
</g>
<!-- alice&#45;&gt;bobby -->
<g id="edge15" class="edge">
<title>alice&#45;&gt;bobby</title>
<path fill="none" stroke="black" d="M311.79,-126.78C308.69,-125.08 305.58,-123.47 302.5,-122 238.12,-91.24 158.71,-68.8 107.13,-56.09"/>
<text text-anchor="middle" x="121.13" y="-59.09" font-family="Times,serif" font-size="10.00">friends</text>
<text text-anchor="middle" x="297.79" y="-129.78" font-family="Times,serif" font-size="10.00">friends</text>
</g>
<!-- alice&#45;&gt;a -->
<g id="edge14" class="edge">
<title>alice&#45;&gt;a</title>
<path fill="none" stroke="black" d="M379.96,-121.69C385.9,-104.28 392.6,-84.69 397.77,-69.54"/>
<text text-anchor="middle" x="408.27" y="-72.54" font-family="Times,serif" font-size="10.00">done</text>
<text text-anchor="middle" x="362.96" y="-113.69" font-family="Times,serif" font-size="10.00">students</text>
</g>
</g>
</svg>
