<?xml version="1.0" encoding="UTF-8" standalone="no"?>
<!DOCTYPE svg PUBLIC "-//W3C//DTD SVG 1.1//EN"
 "http://www.w3.org/Graphics/SVG/1.1/DTD/svg11.dtd">
<!-- Generated by graphviz version 2.40.1 (20161225.0304)
 -->
<!-- Title: H Pages: 1 -->
<svg width="717px" height="412px"
 viewBox="0.00 0.00 717.00 412.00" xmlns="http://www.w3.org/2000/svg" xmlns:xlink="http://www.w3.org/1999/xlink">
<g id="graph0" class="graph" transform="scale(1.0 1.0) rotate(0) translate(4 408)">
<title>H</title>
<polygon fill="#ffffff" stroke="transparent" points="-4,4 -4,-408 713,-408 713,4 -4,4"/>
<!-- study_Right -->
<g id="node1" class="node">
<title>study_Right</title>
<polygon fill="none" stroke="#000000" points="366,-382 366,-400 465,-400 465,-382 366,-382"/>
<text text-anchor="start" x="368.5565" y="-389" font-family="Times,serif" text-decoration="underline" font-size="10.00" fill="#000000">study Right :University</text>
<polygon fill="none" stroke="#000000" points="366,-364 366,-382 465,-382 465,-364 366,-364"/>
<text text-anchor="start" x="369" y="-370" font-family="Times,serif" font-size="10.00" fill="#000000"> &#160;name = &quot;Study Right&quot;</text>
</g>
<!-- r -->
<g id="node2" class="node">
<title>r</title>
<polygon fill="none" stroke="#000000" points="410,-302 410,-320 504,-320 504,-302 410,-302"/>
<text text-anchor="start" x="440.472" y="-309" font-family="Times,serif" text-decoration="underline" font-size="10.00" fill="#000000">r :Room</text>
<polygon fill="none" stroke="#000000" points="410,-260 410,-302 504,-302 504,-260 410,-260"/>
<text text-anchor="start" x="413" y="-290" font-family="Times,serif" font-size="10.00" fill="#000000"> &#160;credits = 42.0</text>
<text text-anchor="start" x="413" y="-278" font-family="Times,serif" font-size="10.00" fill="#000000"> &#160;roomNo = &quot;wa1337&quot;</text>
<text text-anchor="start" x="413" y="-266" font-family="Times,serif" font-size="10.00" fill="#000000"> &#160;topic = &quot;Math&quot;</text>
</g>
<!-- study_Right&#45;&gt;r -->
<g id="edge1" class="edge">
<title>study_Right&#45;&gt;r</title>
<path fill="none" stroke="#000000" d="M425.167,-359.7294C430.0225,-349.0936 435.942,-336.1271 441.3533,-324.2738"/>
<text text-anchor="middle" x="428.8548" y="-327.2738" font-family="Times,serif" font-size="10.00" fill="#000000">rooms</text>
<text text-anchor="middle" x="418.7775" y="-350.7294" font-family="Times,serif" font-size="10.00" fill="#000000">uni</text>
</g>
<!-- r1 -->
<g id="node3" class="node">
<title>r1</title>
<polygon fill="none" stroke="#000000" points="144,-302 144,-320 238,-320 238,-302 144,-302"/>
<text text-anchor="start" x="171.972" y="-309" font-family="Times,serif" text-decoration="underline" font-size="10.00" fill="#000000">r1 :Room</text>
<polygon fill="none" stroke="#000000" points="144,-260 144,-302 238,-302 238,-260 144,-260"/>
<text text-anchor="start" x="147" y="-290" font-family="Times,serif" font-size="10.00" fill="#000000"> &#160;credits = 23.0</text>
<text text-anchor="start" x="147" y="-278" font-family="Times,serif" font-size="10.00" fill="#000000"> &#160;roomNo = &quot;wa1338&quot;</text>
<text text-anchor="start" x="147" y="-266" font-family="Times,serif" font-size="10.00" fill="#000000"> &#160;topic = &quot;Arts&quot;</text>
</g>
<!-- study_Right&#45;&gt;r1 -->
<g id="edge2" class="edge">
<title>study_Right&#45;&gt;r1</title>
<path fill="none" stroke="#000000" d="M361.3464,-359.9637C326.5296,-345.6639 281.276,-327.0777 246.1631,-312.6563"/>
<text text-anchor="middle" x="258.6616" y="-315.6563" font-family="Times,serif" font-size="10.00" fill="#000000">rooms</text>
<text text-anchor="middle" x="354.9569" y="-350.9637" font-family="Times,serif" font-size="10.00" fill="#000000">uni</text>
</g>
<!-- r2 -->
<g id="node4" class="node">
<title>r2</title>
<polygon fill="none" stroke="#000000" points="576,-302 576,-320 670,-320 670,-302 576,-302"/>
<text text-anchor="start" x="603.972" y="-309" font-family="Times,serif" text-decoration="underline" font-size="10.00" fill="#000000">r2 :Room</text>
<polygon fill="none" stroke="#000000" points="576,-260 576,-302 670,-302 670,-260 576,-260"/>
<text text-anchor="start" x="579" y="-290" font-family="Times,serif" font-size="10.00" fill="#000000"> &#160;credits = 0.0</text>
<text text-anchor="start" x="579" y="-278" font-family="Times,serif" font-size="10.00" fill="#000000"> &#160;roomNo = &quot;wa1339&quot;</text>
<text text-anchor="start" x="579" y="-266" font-family="Times,serif" font-size="10.00" fill="#000000"> &#160;topic = &quot;Football&quot;</text>
</g>
<!-- study_Right&#45;&gt;r2 -->
<g id="edge3" class="edge">
<title>study_Right&#45;&gt;r2</title>
<path fill="none" stroke="#000000" d="M470.137,-359.9202C495.7936,-349.4096 526.6238,-336.4417 554,-324 558.4984,-321.9556 563.1378,-319.7919 567.7836,-317.5861"/>
<text text-anchor="middle" x="555.2851" y="-320.5861" font-family="Times,serif" font-size="10.00" fill="#000000">rooms</text>
<text text-anchor="middle" x="463.7475" y="-350.9202" font-family="Times,serif" font-size="10.00" fill="#000000">uni</text>
</g>
<!-- alice -->
<g id="node5" class="node">
<title>alice</title>
<polygon fill="none" stroke="#000000" points="327,-198 327,-216 421,-216 421,-198 327,-198"/>
<text text-anchor="start" x="346.645" y="-205" font-family="Times,serif" text-decoration="underline" font-size="10.00" fill="#000000">alice :Student</text>
<polygon fill="none" stroke="#000000" points="327,-132 327,-198 421,-198 421,-132 327,-132"/>
<text text-anchor="start" x="330" y="-186" font-family="Times,serif" font-size="10.00" fill="#000000"> &#160;credits = 0.0</text>
<text text-anchor="start" x="330" y="-174" font-family="Times,serif" font-size="10.00" fill="#000000"> &#160;motivation = 0.0</text>
<text text-anchor="start" x="330" y="-162" font-family="Times,serif" font-size="10.00" fill="#000000"> &#160;name = &quot;Alice&quot;</text>
<text text-anchor="start" x="330" y="-150" font-family="Times,serif" font-size="10.00" fill="#000000"> &#160;points = 0.0</text>
<text text-anchor="start" x="330" y="-138" font-family="Times,serif" font-size="10.00" fill="#000000"> &#160;studentId = &quot;m4242&quot;</text>
</g>
<!-- study_Right&#45;&gt;alice -->
<g id="edge4" class="edge">
<title>study_Right&#45;&gt;alice</title>
<path fill="none" stroke="#000000" d="M405.1684,-359.8097C400.8216,-349.1669 396.0213,-336.1218 393,-324 384.4613,-289.7422 379.6503,-250.0765 377.0069,-220.1419"/>
<text text-anchor="middle" x="360.6194" y="-223.1419" font-family="Times,serif" font-size="10.00" fill="#000000">students</text>
<text text-anchor="middle" x="398.7789" y="-350.8097" font-family="Times,serif" font-size="10.00" fill="#000000">uni</text>
</g>
<!-- bobby -->
<g id="node6" class="node">
<title>bobby</title>
<polygon fill="none" stroke="#000000" points="8,-70 8,-88 102,-88 102,-70 8,-70"/>
<text text-anchor="start" x="24.5825" y="-77" font-family="Times,serif" text-decoration="underline" font-size="10.00" fill="#000000">bobby :Student</text>
<polygon fill="none" stroke="#000000" points="8,-4 8,-70 102,-70 102,-4 8,-4"/>
<text text-anchor="start" x="11" y="-58" font-family="Times,serif" font-size="10.00" fill="#000000"> &#160;credits = 0.0</text>
<text text-anchor="start" x="11" y="-46" font-family="Times,serif" font-size="10.00" fill="#000000"> &#160;motivation = 0.0</text>
<text text-anchor="start" x="11" y="-34" font-family="Times,serif" font-size="10.00" fill="#000000"> &#160;name = &quot;Bobby&quot;</text>
<text text-anchor="start" x="11" y="-22" font-family="Times,serif" font-size="10.00" fill="#000000"> &#160;points = 0.0</text>
<text text-anchor="start" x="11" y="-10" font-family="Times,serif" font-size="10.00" fill="#000000"> &#160;studentId = &quot;m2323&quot;</text>
</g>
<!-- study_Right&#45;&gt;bobby -->
<g id="edge5" class="edge">
<title>study_Right&#45;&gt;bobby</title>
<path fill="none" stroke="#000000" d="M357.2121,-375.1847C284.5685,-365.8003 164.7926,-347.3746 127,-324 77.1728,-293.182 65.0322,-275.41 46,-220 31.7027,-178.3751 36.5647,-127.8584 43.4258,-92.0035"/>
<text text-anchor="middle" x="27.0383" y="-95.0035" font-family="Times,serif" font-size="10.00" fill="#000000">students</text>
<text text-anchor="middle" x="350.8226" y="-378.1847" font-family="Times,serif" font-size="10.00" fill="#000000">uni</text>
</g>
<!-- carli -->
<g id="node7" class="node">
<title>carli</title>
<polygon fill="none" stroke="#000000" points="607,-198 607,-216 701,-216 701,-198 607,-198"/>
<text text-anchor="start" x="627.2" y="-205" font-family="Times,serif" text-decoration="underline" font-size="10.00" fill="#000000">carli :Student</text>
<polygon fill="none" stroke="#000000" points="607,-132 607,-198 701,-198 701,-132 607,-132"/>
<text text-anchor="start" x="610" y="-186" font-family="Times,serif" font-size="10.00" fill="#000000"> &#160;credits = 0.0</text>
<text text-anchor="start" x="610" y="-174" font-family="Times,serif" font-size="10.00" fill="#000000"> &#160;motivation = 0.0</text>
<text text-anchor="start" x="610" y="-162" font-family="Times,serif" font-size="10.00" fill="#000000"> &#160;name = &quot;Carli&quot;</text>
<text text-anchor="start" x="610" y="-150" font-family="Times,serif" font-size="10.00" fill="#000000"> &#160;points = 0.0</text>
<text text-anchor="start" x="610" y="-138" font-family="Times,serif" font-size="10.00" fill="#000000"> &#160;studentId = &quot;m2323&quot;</text>
</g>
<!-- study_Right&#45;&gt;carli -->
<g id="edge6" class="edge">
<title>study_Right&#45;&gt;carli</title>
<path fill="none" stroke="#000000" d="M468.7875,-359.948C486.8613,-350.7265 506.1751,-338.6932 521,-324 545.5898,-299.6287 537.1189,-282.8298 559,-256 570.5668,-241.8173 584.7711,-228.1133 598.6368,-216.101"/>
<text text-anchor="middle" x="582.2493" y="-219.101" font-family="Times,serif" font-size="10.00" fill="#000000">students</text>
<text text-anchor="middle" x="475.177" y="-350.948" font-family="Times,serif" font-size="10.00" fill="#000000">uni</text>
</g>
<!-- r&#45;&gt;alice -->
<g id="edge9" class="edge">
<title>r&#45;&gt;alice</title>
<path fill="none" stroke="#000000" d="M432.5462,-255.8236C424.6083,-244.7297 415.6635,-232.2285 407.1989,-220.3985"/>
<text text-anchor="middle" x="423.5864" y="-223.3985" font-family="Times,serif" font-size="10.00" fill="#000000">students</text>
<text text-anchor="middle" x="428.6567" y="-246.8236" font-family="Times,serif" font-size="10.00" fill="#000000">in</text>
</g>
<!-- r&#45;&gt;carli -->
<g id="edge10" class="edge">
<title>r&#45;&gt;carli</title>
<path fill="none" stroke="#000000" d="M512.3104,-263.0618C536.5804,-250.6905 565.1444,-235.3707 590,-220 592.9095,-218.2008 595.861,-216.3143 598.8187,-214.3747"/>
<text text-anchor="middle" x="582.4312" y="-205.3747" font-family="Times,serif" font-size="10.00" fill="#000000">students</text>
<text text-anchor="middle" x="516.1999" y="-266.0618" font-family="Times,serif" font-size="10.00" fill="#000000">in</text>
</g>
<!-- a -->
<g id="node8" class="node">
<title>a</title>
<polygon fill="none" stroke="#000000" points="375,-52 375,-70 455,-70 455,-52 375,-52"/>
<text text-anchor="start" x="386.2545" y="-59" font-family="Times,serif" text-decoration="underline" font-size="10.00" fill="#000000">a :Assignment</text>
<polygon fill="none" stroke="#000000" points="375,-22 375,-52 455,-52 455,-22 375,-22"/>
<text text-anchor="start" x="378" y="-40" font-family="Times,serif" font-size="10.00" fill="#000000"> &#160;points = 42.0</text>
<text text-anchor="start" x="378" y="-28" font-family="Times,serif" font-size="10.00" fill="#000000"> &#160;task = &quot;integrals&quot;</text>
</g>
<!-- r&#45;&gt;a -->
<g id="edge7" class="edge">
<title>r&#45;&gt;a</title>
<path fill="none" stroke="#000000" d="M454.5663,-255.9389C451.8457,-222.9895 446.6467,-171.7543 438,-128 434.4169,-109.8688 428.8493,-89.8935 424.0895,-74.1978"/>
<text text-anchor="middle" x="448.5305" y="-77.1978" font-family="Times,serif" font-size="10.00" fill="#000000">assignments</text>
<text text-anchor="middle" x="444.0123" y="-246.9389" font-family="Times,serif" font-size="10.00" fill="#000000">room</text>
</g>
<!-- a3 -->
<g id="node9" class="node">
<title>a3</title>
<polygon fill="none" stroke="#000000" points="494,-180 494,-198 573,-198 573,-180 494,-180"/>
<text text-anchor="start" x="502.2545" y="-187" font-family="Times,serif" text-decoration="underline" font-size="10.00" fill="#000000">a3 :Assignment</text>
<polygon fill="none" stroke="#000000" points="494,-150 494,-180 573,-180 573,-150 494,-150"/>
<text text-anchor="start" x="497" y="-168" font-family="Times,serif" font-size="10.00" fill="#000000"> &#160;points = 23.0</text>
<text text-anchor="start" x="497" y="-156" font-family="Times,serif" font-size="10.00" fill="#000000"> &#160;task = &quot;matrices&quot;</text>
</g>
<!-- r&#45;&gt;a3 -->
<g id="edge8" class="edge">
<title>r&#45;&gt;a3</title>
<path fill="none" stroke="#000000" d="M479.3914,-255.8236C490.6005,-238.715 504.0026,-218.2591 514.6025,-202.0804"/>
<text text-anchor="middle" x="490.1615" y="-205.0804" font-family="Times,serif" font-size="10.00" fill="#000000">assignments</text>
<text text-anchor="middle" x="468.8374" y="-246.8236" font-family="Times,serif" font-size="10.00" fill="#000000">room</text>
</g>
<!-- r1&#45;&gt;bobby -->
<g id="edge13" class="edge">
<title>r1&#45;&gt;bobby</title>
<path fill="none" stroke="#000000" d="M135.7793,-269.9525C112.9265,-258.7933 88.4383,-242.5159 74,-220 49.641,-182.0132 47.1489,-129.5477 49.3513,-92.1832"/>
<text text-anchor="middle" x="65.7388" y="-95.1832" font-family="Times,serif" font-size="10.00" fill="#000000">students</text>
<text text-anchor="middle" x="131.8898" y="-272.9525" font-family="Times,serif" font-size="10.00" fill="#000000">in</text>
</g>
<!-- a4 -->
<g id="node10" class="node">
<title>a4</title>
<polygon fill="none" stroke="#000000" points="91,-180 91,-198 173,-198 173,-180 91,-180"/>
<text text-anchor="start" x="100.7545" y="-187" font-family="Times,serif" text-decoration="underline" font-size="10.00" fill="#000000">a4 :Assignment</text>
<polygon fill="none" stroke="#000000" points="91,-150 91,-180 173,-180 173,-150 91,-150"/>
<text text-anchor="start" x="94" y="-168" font-family="Times,serif" font-size="10.00" fill="#000000"> &#160;points = 12.0</text>
<text text-anchor="start" x="94" y="-156" font-family="Times,serif" font-size="10.00" fill="#000000"> &#160;task = &quot;drawings&quot;</text>
</g>
<!-- r1&#45;&gt;a4 -->
<g id="edge11" class="edge">
<title>r1&#45;&gt;a4</title>
<path fill="none" stroke="#000000" d="M173.6172,-255.8236C164.9154,-238.715 154.5111,-218.2591 146.2823,-202.0804"/>
<text text-anchor="middle" x="121.8413" y="-205.0804" font-family="Times,serif" font-size="10.00" fill="#000000">assignments</text>
<text text-anchor="middle" x="163.0632" y="-246.8236" font-family="Times,serif" font-size="10.00" fill="#000000">room</text>
</g>
<!-- a5 -->
<g id="node11" class="node">
<title>a5</title>
<polygon fill="none" stroke="#000000" points="207,-180 207,-198 293,-198 293,-180 207,-180"/>
<text text-anchor="start" x="218.7545" y="-187" font-family="Times,serif" text-decoration="underline" font-size="10.00" fill="#000000">a5 :Assignment</text>
<polygon fill="none" stroke="#000000" points="207,-150 207,-180 293,-180 293,-150 207,-150"/>
<text text-anchor="start" x="210" y="-168" font-family="Times,serif" font-size="10.00" fill="#000000"> &#160;points = 12.0</text>
<text text-anchor="start" x="210" y="-156" font-family="Times,serif" font-size="10.00" fill="#000000"> &#160;task = &quot;sculptures&quot;</text>
</g>
<!-- r1&#45;&gt;a5 -->
<g id="edge12" class="edge">
<title>r1&#45;&gt;a5</title>
<path fill="none" stroke="#000000" d="M208.3828,-255.8236C217.0846,-238.715 227.4889,-218.2591 235.7177,-202.0804"/>
<text text-anchor="middle" x="211.2767" y="-205.0804" font-family="Times,serif" font-size="10.00" fill="#000000">assignments</text>
<text text-anchor="middle" x="197.8288" y="-246.8236" font-family="Times,serif" font-size="10.00" fill="#000000">room</text>
</g>
<!-- alice&#45;&gt;bobby -->
<g id="edge15" class="edge">
<title>alice&#45;&gt;bobby</title>
<path fill="none" stroke="#000000" d="M318.8064,-132.7811C315.877,-131.0849 312.9321,-129.479 310,-128 244.605,-95.0147 163.1556,-71.5787 110.1591,-58.4272"/>
<text text-anchor="middle" x="124.0416" y="-61.4272" font-family="Times,serif" font-size="10.00" fill="#000000">friends</text>
<text text-anchor="middle" x="304.9239" y="-135.7811" font-family="Times,serif" font-size="10.00" fill="#000000">friends</text>
</g>
<!-- alice&#45;&gt;a -->
<g id="edge14" class="edge">
<title>alice&#45;&gt;a</title>
<path fill="none" stroke="#000000" d="M388.8019,-127.7891C394.5363,-109.8867 400.9168,-89.9671 405.9453,-74.2684"/>
<text text-anchor="middle" x="396.2258" y="-77.2684" font-family="Times,serif" font-size="10.00" fill="#000000">done</text>
<text text-anchor="middle" x="372.4144" y="-118.7891" font-family="Times,serif" font-size="10.00" fill="#000000">students</text>
</g>
</g>
</svg>
