<?xml version="1.0" encoding="UTF-8" standalone="no"?>
<!DOCTYPE svg PUBLIC "-//W3C//DTD SVG 1.1//EN"
 "http://www.w3.org/Graphics/SVG/1.1/DTD/svg11.dtd">
<!-- Generated by graphviz version 2.44.0 (20200408.0750)
 -->
<!-- Title: uniks.studyright.model Pages: 1 -->
<svg width="690px" height="412px"
 viewBox="0.00 0.00 690.00 412.00" xmlns="http://www.w3.org/2000/svg" xmlns:xlink="http://www.w3.org/1999/xlink">
<g id="graph0" class="graph" transform="scale(1.0 1.0) rotate(0) translate(4 408)">
<title>uniks.studyright.model</title>
<polygon fill="white" stroke="transparent" points="-4,4 -4,-408 686,-408 686,4 -4,4"/>
<!-- study_Right -->
<g id="node1" class="node">
<title>study_Right</title>
<polygon fill="none" stroke="black" points="350.5,-382 350.5,-400 449.5,-400 449.5,-382 350.5,-382"/>
<text text-anchor="start" x="353.06" y="-389" font-family="Times,serif" text-decoration="underline" font-size="10.00">study Right :University</text>
<polygon fill="none" stroke="black" points="350.5,-364 350.5,-382 449.5,-382 449.5,-364 350.5,-364"/>
<text text-anchor="start" x="355.74" y="-370" font-family="Times,serif" font-size="10.00">name = &quot;Study Right&quot;</text>
</g>
<!-- r -->
<g id="node2" class="node">
<title>r</title>
<polygon fill="none" stroke="black" points="396.5,-302 396.5,-320 485.5,-320 485.5,-302 396.5,-302"/>
<text text-anchor="start" x="424.47" y="-309" font-family="Times,serif" text-decoration="underline" font-size="10.00">r :Room</text>
<polygon fill="none" stroke="black" points="396.5,-260 396.5,-302 485.5,-302 485.5,-260 396.5,-260"/>
<text text-anchor="start" x="399.5" y="-290" font-family="Times,serif" font-size="10.00">credits = 42.0</text>
<text text-anchor="start" x="399.5" y="-278" font-family="Times,serif" font-size="10.00">roomNo = &quot;wa1337&quot;</text>
<text text-anchor="start" x="399.5" y="-266" font-family="Times,serif" font-size="10.00">topic = &quot;Math&quot;</text>
</g>
<!-- study_Right&#45;&gt;r -->
<g id="edge1" class="edge">
<title>study_Right&#45;&gt;r</title>
<path fill="none" stroke="black" d="M409.22,-359.67C414.05,-349.07 419.99,-336.01 425.4,-324.14"/>
<text text-anchor="middle" x="412.9" y="-327.14" font-family="Times,serif" font-size="10.00">rooms</text>
<text text-anchor="middle" x="402.83" y="-350.67" font-family="Times,serif" font-size="10.00">uni</text>
</g>
<!-- r1 -->
<g id="node3" class="node">
<title>r1</title>
<polygon fill="none" stroke="black" points="140.5,-302 140.5,-320 229.5,-320 229.5,-302 140.5,-302"/>
<text text-anchor="start" x="165.97" y="-309" font-family="Times,serif" text-decoration="underline" font-size="10.00">r1 :Room</text>
<polygon fill="none" stroke="black" points="140.5,-260 140.5,-302 229.5,-302 229.5,-260 140.5,-260"/>
<text text-anchor="start" x="143.5" y="-290" font-family="Times,serif" font-size="10.00">credits = 23.0</text>
<text text-anchor="start" x="143.5" y="-278" font-family="Times,serif" font-size="10.00">roomNo = &quot;wa1338&quot;</text>
<text text-anchor="start" x="143.5" y="-266" font-family="Times,serif" font-size="10.00">topic = &quot;Arts&quot;</text>
</g>
<!-- study_Right&#45;&gt;r1 -->
<g id="edge2" class="edge">
<title>study_Right&#45;&gt;r1</title>
<path fill="none" stroke="black" d="M349.09,-359.9C315.46,-345.82 271.32,-327.34 237.21,-313.07"/>
<text text-anchor="middle" x="249.71" y="-316.07" font-family="Times,serif" font-size="10.00">rooms</text>
<text text-anchor="middle" x="342.7" y="-350.9" font-family="Times,serif" font-size="10.00">uni</text>
</g>
<!-- r2 -->
<g id="node4" class="node">
<title>r2</title>
<polygon fill="none" stroke="black" points="558.5,-302 558.5,-320 647.5,-320 647.5,-302 558.5,-302"/>
<text text-anchor="start" x="583.97" y="-309" font-family="Times,serif" text-decoration="underline" font-size="10.00">r2 :Room</text>
<polygon fill="none" stroke="black" points="558.5,-260 558.5,-302 647.5,-302 647.5,-260 558.5,-260"/>
<text text-anchor="start" x="561.5" y="-290" font-family="Times,serif" font-size="10.00">credits = 0.0</text>
<text text-anchor="start" x="561.5" y="-278" font-family="Times,serif" font-size="10.00">roomNo = &quot;wa1339&quot;</text>
<text text-anchor="start" x="561.5" y="-266" font-family="Times,serif" font-size="10.00">topic = &quot;Football&quot;</text>
</g>
<!-- study_Right&#45;&gt;r2 -->
<g id="edge3" class="edge">
<title>study_Right&#45;&gt;r2</title>
<path fill="none" stroke="black" d="M451.81,-359.95C477.23,-349.5 508.12,-336.47 535.5,-324 540.22,-321.85 545.1,-319.57 549.98,-317.24"/>
<text text-anchor="middle" x="537.48" y="-320.24" font-family="Times,serif" font-size="10.00">rooms</text>
<text text-anchor="middle" x="445.42" y="-350.95" font-family="Times,serif" font-size="10.00">uni</text>
</g>
<!-- alice -->
<g id="node5" class="node">
<title>alice</title>
<polygon fill="none" stroke="black" points="315.5,-198 315.5,-216 404.5,-216 404.5,-198 315.5,-198"/>
<text text-anchor="start" x="332.64" y="-205" font-family="Times,serif" text-decoration="underline" font-size="10.00">alice :Student</text>
<polygon fill="none" stroke="black" points="315.5,-132 315.5,-198 404.5,-198 404.5,-132 315.5,-132"/>
<text text-anchor="start" x="318.5" y="-186" font-family="Times,serif" font-size="10.00">credits = 0.0</text>
<text text-anchor="start" x="318.5" y="-174" font-family="Times,serif" font-size="10.00">motivation = 0.0</text>
<text text-anchor="start" x="318.5" y="-162" font-family="Times,serif" font-size="10.00">name = &quot;Alice&quot;</text>
<text text-anchor="start" x="318.5" y="-150" font-family="Times,serif" font-size="10.00">points = 0.0</text>
<text text-anchor="start" x="318.5" y="-138" font-family="Times,serif" font-size="10.00">studentId = &quot;m4242&quot;</text>
</g>
<!-- study_Right&#45;&gt;alice -->
<g id="edge4" class="edge">
<title>study_Right&#45;&gt;alice</title>
<path fill="none" stroke="black" d="M390.95,-359.93C386.94,-349.31 382.41,-336.14 379.5,-324 371.25,-289.61 366.13,-249.88 363.14,-220.1"/>
<text text-anchor="middle" x="346.75" y="-223.1" font-family="Times,serif" font-size="10.00">students</text>
<text text-anchor="middle" x="384.56" y="-350.93" font-family="Times,serif" font-size="10.00">uni</text>
</g>
<!-- bobby -->
<g id="node6" class="node">
<title>bobby</title>
<polygon fill="none" stroke="black" points="8.5,-70 8.5,-88 97.5,-88 97.5,-70 8.5,-70"/>
<text text-anchor="start" x="22.58" y="-77" font-family="Times,serif" text-decoration="underline" font-size="10.00">bobby :Student</text>
<polygon fill="none" stroke="black" points="8.5,-4 8.5,-70 97.5,-70 97.5,-4 8.5,-4"/>
<text text-anchor="start" x="11.5" y="-58" font-family="Times,serif" font-size="10.00">credits = 0.0</text>
<text text-anchor="start" x="11.5" y="-46" font-family="Times,serif" font-size="10.00">motivation = 0.0</text>
<text text-anchor="start" x="11.5" y="-34" font-family="Times,serif" font-size="10.00">name = &quot;Bobby&quot;</text>
<text text-anchor="start" x="11.5" y="-22" font-family="Times,serif" font-size="10.00">points = 0.0</text>
<text text-anchor="start" x="11.5" y="-10" font-family="Times,serif" font-size="10.00">studentId = &quot;m2323&quot;</text>
</g>
<!-- study_Right&#45;&gt;bobby -->
<g id="edge5" class="edge">
<title>study_Right&#45;&gt;bobby</title>
<path fill="none" stroke="black" d="M341.83,-380.72C282.56,-377.92 189.7,-366.32 122.5,-324 73.38,-293.07 62.02,-275.01 43.5,-220 29.49,-178.39 34.38,-127.97 41.18,-92.32"/>
<text text-anchor="middle" x="24.79" y="-95.32" font-family="Times,serif" font-size="10.00">students</text>
<text text-anchor="middle" x="335.44" y="-383.72" font-family="Times,serif" font-size="10.00">uni</text>
</g>
<!-- carli -->
<g id="node7" class="node">
<title>carli</title>
<polygon fill="none" stroke="black" points="585.5,-198 585.5,-216 674.5,-216 674.5,-198 585.5,-198"/>
<text text-anchor="start" x="603.2" y="-205" font-family="Times,serif" text-decoration="underline" font-size="10.00">carli :Student</text>
<polygon fill="none" stroke="black" points="585.5,-132 585.5,-198 674.5,-198 674.5,-132 585.5,-132"/>
<text text-anchor="start" x="588.5" y="-186" font-family="Times,serif" font-size="10.00">credits = 0.0</text>
<text text-anchor="start" x="588.5" y="-174" font-family="Times,serif" font-size="10.00">motivation = 0.0</text>
<text text-anchor="start" x="588.5" y="-162" font-family="Times,serif" font-size="10.00">name = &quot;Carli&quot;</text>
<text text-anchor="start" x="588.5" y="-150" font-family="Times,serif" font-size="10.00">points = 0.0</text>
<text text-anchor="start" x="588.5" y="-138" font-family="Times,serif" font-size="10.00">studentId = &quot;m2323&quot;</text>
</g>
<!-- study_Right&#45;&gt;carli -->
<g id="edge6" class="edge">
<title>study_Right&#45;&gt;carli</title>
<path fill="none" stroke="black" d="M450.09,-359.95C468.09,-350.77 487.57,-338.7 502.5,-324 527.32,-299.55 519.76,-283.23 541.5,-256 551.86,-243.02 564.34,-230.24 576.61,-218.81"/>
<text text-anchor="middle" x="560.22" y="-221.81" font-family="Times,serif" font-size="10.00">students</text>
<text text-anchor="middle" x="456.48" y="-350.95" font-family="Times,serif" font-size="10.00">uni</text>
</g>
<!-- r&#45;&gt;alice -->
<g id="edge9" class="edge">
<title>r&#45;&gt;alice</title>
<path fill="none" stroke="black" d="M416.85,-255.72C409.01,-244.68 400.14,-232.19 391.76,-220.4"/>
<text text-anchor="middle" x="408.14" y="-223.4" font-family="Times,serif" font-size="10.00">students</text>
<text text-anchor="middle" x="412.96" y="-246.72" font-family="Times,serif" font-size="10.00">in</text>
</g>
<!-- r&#45;&gt;carli -->
<g id="edge10" class="edge">
<title>r&#45;&gt;carli</title>
<path fill="none" stroke="black" d="M493.28,-262.3C516.45,-250.08 543.73,-234.99 567.5,-220 570.54,-218.08 573.62,-216.07 576.71,-214"/>
<text text-anchor="middle" x="560.33" y="-205" font-family="Times,serif" font-size="10.00">students</text>
<text text-anchor="middle" x="497.17" y="-265.3" font-family="Times,serif" font-size="10.00">in</text>
</g>
<!-- a -->
<g id="node8" class="node">
<title>a</title>
<polygon fill="none" stroke="black" points="362.5,-52 362.5,-70 437.5,-70 437.5,-52 362.5,-52"/>
<text text-anchor="start" x="371.25" y="-59" font-family="Times,serif" text-decoration="underline" font-size="10.00">a :Assignment</text>
<polygon fill="none" stroke="black" points="362.5,-22 362.5,-52 437.5,-52 437.5,-22 362.5,-22"/>
<text text-anchor="start" x="365.5" y="-40" font-family="Times,serif" font-size="10.00">points = 42.0</text>
<text text-anchor="start" x="365.5" y="-28" font-family="Times,serif" font-size="10.00">task = &quot;integrals&quot;</text>
</g>
<!-- r&#45;&gt;a -->
<g id="edge7" class="edge">
<title>r&#45;&gt;a</title>
<path fill="none" stroke="black" d="M438.02,-255.79C435.25,-223.08 429.98,-171.8 421.5,-128 417.98,-109.83 412.54,-89.75 407.95,-74.13"/>
<text text-anchor="middle" x="432.39" y="-77.13" font-family="Times,serif" font-size="10.00">assignments</text>
<text text-anchor="middle" x="427.47" y="-246.79" font-family="Times,serif" font-size="10.00">room</text>
</g>
<!-- a3 -->
<g id="node9" class="node">
<title>a3</title>
<polygon fill="none" stroke="black" points="476.5,-180 476.5,-198 550.5,-198 550.5,-180 476.5,-180"/>
<text text-anchor="start" x="482.25" y="-187" font-family="Times,serif" text-decoration="underline" font-size="10.00">a3 :Assignment</text>
<polygon fill="none" stroke="black" points="476.5,-150 476.5,-180 550.5,-180 550.5,-150 476.5,-150"/>
<text text-anchor="start" x="479.5" y="-168" font-family="Times,serif" font-size="10.00">points = 23.0</text>
<text text-anchor="start" x="479.5" y="-156" font-family="Times,serif" font-size="10.00">task = &quot;matrices&quot;</text>
</g>
<!-- r&#45;&gt;a3 -->
<g id="edge8" class="edge">
<title>r&#45;&gt;a3</title>
<path fill="none" stroke="black" d="M461.81,-255.72C472.67,-238.76 485.71,-218.4 495.97,-202.37"/>
<text text-anchor="middle" x="471.53" y="-205.37" font-family="Times,serif" font-size="10.00">assignments</text>
<text text-anchor="middle" x="451.26" y="-246.72" font-family="Times,serif" font-size="10.00">room</text>
</g>
<!-- r1&#45;&gt;bobby -->
<g id="edge13" class="edge">
<title>r1&#45;&gt;bobby</title>
<path fill="none" stroke="black" d="M131.74,-269.28C109.5,-258.22 85.55,-242.12 71.5,-220 47.28,-181.87 44.87,-129.28 47.05,-92.11"/>
<text text-anchor="middle" x="63.44" y="-95.11" font-family="Times,serif" font-size="10.00">students</text>
<text text-anchor="middle" x="127.85" y="-272.28" font-family="Times,serif" font-size="10.00">in</text>
</g>
<!-- a4 -->
<g id="node10" class="node">
<title>a4</title>
<polygon fill="none" stroke="black" points="89.5,-180 89.5,-198 166.5,-198 166.5,-180 89.5,-180"/>
<text text-anchor="start" x="96.75" y="-187" font-family="Times,serif" text-decoration="underline" font-size="10.00">a4 :Assignment</text>
<polygon fill="none" stroke="black" points="89.5,-150 89.5,-180 166.5,-180 166.5,-150 89.5,-150"/>
<text text-anchor="start" x="92.5" y="-168" font-family="Times,serif" font-size="10.00">points = 12.0</text>
<text text-anchor="start" x="92.5" y="-156" font-family="Times,serif" font-size="10.00">task = &quot;drawings&quot;</text>
</g>
<!-- r1&#45;&gt;a4 -->
<g id="edge11" class="edge">
<title>r1&#45;&gt;a4</title>
<path fill="none" stroke="black" d="M167.86,-255.72C159.38,-238.76 149.2,-218.4 141.18,-202.37"/>
<text text-anchor="middle" x="116.74" y="-205.37" font-family="Times,serif" font-size="10.00">assignments</text>
<text text-anchor="middle" x="157.31" y="-246.72" font-family="Times,serif" font-size="10.00">room</text>
</g>
<!-- a5 -->
<g id="node11" class="node">
<title>a5</title>
<polygon fill="none" stroke="black" points="200.5,-180 200.5,-198 281.5,-198 281.5,-180 200.5,-180"/>
<text text-anchor="start" x="209.75" y="-187" font-family="Times,serif" text-decoration="underline" font-size="10.00">a5 :Assignment</text>
<polygon fill="none" stroke="black" points="200.5,-150 200.5,-180 281.5,-180 281.5,-150 200.5,-150"/>
<text text-anchor="start" x="203.5" y="-168" font-family="Times,serif" font-size="10.00">points = 12.0</text>
<text text-anchor="start" x="203.5" y="-156" font-family="Times,serif" font-size="10.00">task = &quot;sculptures&quot;</text>
</g>
<!-- r1&#45;&gt;a5 -->
<g id="edge12" class="edge">
<title>r1&#45;&gt;a5</title>
<path fill="none" stroke="black" d="M200.85,-255.72C209.18,-238.76 219.18,-218.4 227.06,-202.37"/>
<text text-anchor="middle" x="202.61" y="-205.37" font-family="Times,serif" font-size="10.00">assignments</text>
<text text-anchor="middle" x="190.29" y="-246.72" font-family="Times,serif" font-size="10.00">room</text>
</g>
<!-- alice&#45;&gt;bobby -->
<g id="edge15" class="edge">
<title>alice&#45;&gt;bobby</title>
<path fill="none" stroke="black" d="M306.74,-133.12C303.67,-131.3 300.58,-129.58 297.5,-128 234.51,-95.72 155.95,-72.43 105.03,-59.33"/>
<text text-anchor="middle" x="118.91" y="-62.33" font-family="Times,serif" font-size="10.00">friends</text>
<text text-anchor="middle" x="292.86" y="-136.12" font-family="Times,serif" font-size="10.00">friends</text>
</g>
<!-- alice&#45;&gt;a -->
<g id="edge14" class="edge">
<title>alice&#45;&gt;a</title>
<path fill="none" stroke="black" d="M373.83,-127.87C379.52,-109.93 385.88,-89.89 390.85,-74.24"/>
<text text-anchor="middle" x="381.13" y="-77.24" font-family="Times,serif" font-size="10.00">done</text>
<text text-anchor="middle" x="357.44" y="-118.87" font-family="Times,serif" font-size="10.00">students</text>
</g>
</g>
</svg>
