<?xml version="1.0" encoding="UTF-8" standalone="no"?>
<!DOCTYPE svg PUBLIC "-//W3C//DTD SVG 1.1//EN"
 "http://www.w3.org/Graphics/SVG/1.1/DTD/svg11.dtd">
<!-- Generated by graphviz version 2.44.0 (20200408.0750)
 -->
<!-- Title: H Pages: 1 -->
<svg width="717px" height="412px"
 viewBox="0.00 0.00 717.00 412.00" xmlns="http://www.w3.org/2000/svg" xmlns:xlink="http://www.w3.org/1999/xlink">
<g id="graph0" class="graph" transform="scale(1.0 1.0) rotate(0) translate(4 408)">
<title>H</title>
<polygon fill="white" stroke="transparent" points="-4,4 -4,-408 713,-408 713,4 -4,4"/>
<!-- study_Right -->
<g id="node1" class="node">
<title>study_Right</title>
<polygon fill="none" stroke="black" points="366,-382 366,-400 465,-400 465,-382 366,-382"/>
<text text-anchor="start" x="368.56" y="-389" font-family="Times,serif" text-decoration="underline" font-size="10.00">study Right :University</text>
<polygon fill="none" stroke="black" points="366,-364 366,-382 465,-382 465,-364 366,-364"/>
<text text-anchor="start" x="369" y="-370" font-family="Times,serif" font-size="10.00"> &#160;name = &quot;Study Right&quot;</text>
</g>
<!-- r -->
<g id="node2" class="node">
<title>r</title>
<polygon fill="none" stroke="black" points="410,-302 410,-320 504,-320 504,-302 410,-302"/>
<text text-anchor="start" x="440.47" y="-309" font-family="Times,serif" text-decoration="underline" font-size="10.00">r :Room</text>
<polygon fill="none" stroke="black" points="410,-260 410,-302 504,-302 504,-260 410,-260"/>
<text text-anchor="start" x="413" y="-290" font-family="Times,serif" font-size="10.00"> &#160;credits = 42.0</text>
<text text-anchor="start" x="413" y="-278" font-family="Times,serif" font-size="10.00"> &#160;roomNo = &quot;wa1337&quot;</text>
<text text-anchor="start" x="413" y="-266" font-family="Times,serif" font-size="10.00"> &#160;topic = &quot;Math&quot;</text>
</g>
<!-- study_Right&#45;&gt;r -->
<g id="edge1" class="edge">
<title>study_Right&#45;&gt;r</title>
<path fill="none" stroke="black" d="M424.95,-359.67C429.9,-349.07 435.99,-336.01 441.53,-324.14"/>
<text text-anchor="middle" x="429.04" y="-327.14" font-family="Times,serif" font-size="10.00">rooms</text>
<text text-anchor="middle" x="418.56" y="-350.67" font-family="Times,serif" font-size="10.00">uni</text>
</g>
<!-- r1 -->
<g id="node3" class="node">
<title>r1</title>
<polygon fill="none" stroke="black" points="144,-302 144,-320 238,-320 238,-302 144,-302"/>
<text text-anchor="start" x="171.97" y="-309" font-family="Times,serif" text-decoration="underline" font-size="10.00">r1 :Room</text>
<polygon fill="none" stroke="black" points="144,-260 144,-302 238,-302 238,-260 144,-260"/>
<text text-anchor="start" x="147" y="-290" font-family="Times,serif" font-size="10.00"> &#160;credits = 23.0</text>
<text text-anchor="start" x="147" y="-278" font-family="Times,serif" font-size="10.00"> &#160;roomNo = &quot;wa1338&quot;</text>
<text text-anchor="start" x="147" y="-266" font-family="Times,serif" font-size="10.00"> &#160;topic = &quot;Arts&quot;</text>
</g>
<!-- study_Right&#45;&gt;r1 -->
<g id="edge2" class="edge">
<title>study_Right&#45;&gt;r1</title>
<path fill="none" stroke="black" d="M362.48,-359.9C327.57,-345.87 281.79,-327.48 246.31,-313.22"/>
<text text-anchor="middle" x="258.81" y="-316.22" font-family="Times,serif" font-size="10.00">rooms</text>
<text text-anchor="middle" x="356.09" y="-350.9" font-family="Times,serif" font-size="10.00">uni</text>
</g>
<!-- r2 -->
<g id="node4" class="node">
<title>r2</title>
<polygon fill="none" stroke="black" points="576,-302 576,-320 670,-320 670,-302 576,-302"/>
<text text-anchor="start" x="603.97" y="-309" font-family="Times,serif" text-decoration="underline" font-size="10.00">r2 :Room</text>
<polygon fill="none" stroke="black" points="576,-260 576,-302 670,-302 670,-260 576,-260"/>
<text text-anchor="start" x="579" y="-290" font-family="Times,serif" font-size="10.00"> &#160;credits = 0.0</text>
<text text-anchor="start" x="579" y="-278" font-family="Times,serif" font-size="10.00"> &#160;roomNo = &quot;wa1339&quot;</text>
<text text-anchor="start" x="579" y="-266" font-family="Times,serif" font-size="10.00"> &#160;topic = &quot;Football&quot;</text>
</g>
<!-- study_Right&#45;&gt;r2 -->
<g id="edge3" class="edge">
<title>study_Right&#45;&gt;r2</title>
<path fill="none" stroke="black" d="M468.43,-359.92C494.41,-349.46 525.99,-336.43 554,-324 558.49,-322.01 563.12,-319.9 567.77,-317.76"/>
<text text-anchor="middle" x="555.27" y="-320.76" font-family="Times,serif" font-size="10.00">rooms</text>
<text text-anchor="middle" x="474.82" y="-350.92" font-family="Times,serif" font-size="10.00">uni</text>
</g>
<!-- alice -->
<g id="node5" class="node">
<title>alice</title>
<polygon fill="none" stroke="black" points="327,-198 327,-216 421,-216 421,-198 327,-198"/>
<text text-anchor="start" x="346.64" y="-205" font-family="Times,serif" text-decoration="underline" font-size="10.00">alice :Student</text>
<polygon fill="none" stroke="black" points="327,-132 327,-198 421,-198 421,-132 327,-132"/>
<text text-anchor="start" x="330" y="-186" font-family="Times,serif" font-size="10.00"> &#160;credits = 0.0</text>
<text text-anchor="start" x="330" y="-174" font-family="Times,serif" font-size="10.00"> &#160;motivation = 0.0</text>
<text text-anchor="start" x="330" y="-162" font-family="Times,serif" font-size="10.00"> &#160;name = &quot;Alice&quot;</text>
<text text-anchor="start" x="330" y="-150" font-family="Times,serif" font-size="10.00"> &#160;points = 0.0</text>
<text text-anchor="start" x="330" y="-138" font-family="Times,serif" font-size="10.00"> &#160;studentId = &quot;m4242&quot;</text>
</g>
<!-- study_Right&#45;&gt;alice -->
<g id="edge4" class="edge">
<title>study_Right&#45;&gt;alice</title>
<path fill="none" stroke="black" d="M405.39,-359.75C400.98,-349.19 396.07,-336.13 393,-324 384.34,-289.74 379.52,-250.01 376.91,-220.19"/>
<text text-anchor="middle" x="360.52" y="-223.19" font-family="Times,serif" font-size="10.00">students</text>
<text text-anchor="middle" x="399" y="-350.75" font-family="Times,serif" font-size="10.00">uni</text>
</g>
<!-- bobby -->
<g id="node6" class="node">
<title>bobby</title>
<polygon fill="none" stroke="black" points="8,-70 8,-88 102,-88 102,-70 8,-70"/>
<text text-anchor="start" x="24.58" y="-77" font-family="Times,serif" text-decoration="underline" font-size="10.00">bobby :Student</text>
<polygon fill="none" stroke="black" points="8,-4 8,-70 102,-70 102,-4 8,-4"/>
<text text-anchor="start" x="11" y="-58" font-family="Times,serif" font-size="10.00"> &#160;credits = 0.0</text>
<text text-anchor="start" x="11" y="-46" font-family="Times,serif" font-size="10.00"> &#160;motivation = 0.0</text>
<text text-anchor="start" x="11" y="-34" font-family="Times,serif" font-size="10.00"> &#160;name = &quot;Bobby&quot;</text>
<text text-anchor="start" x="11" y="-22" font-family="Times,serif" font-size="10.00"> &#160;points = 0.0</text>
<text text-anchor="start" x="11" y="-10" font-family="Times,serif" font-size="10.00"> &#160;studentId = &quot;m2323&quot;</text>
</g>
<!-- study_Right&#45;&gt;bobby -->
<g id="edge5" class="edge">
<title>study_Right&#45;&gt;bobby</title>
<path fill="none" stroke="black" d="M357.44,-381.19C296.05,-378.88 198.06,-367.78 127,-324 77.12,-293.27 65.03,-275.41 46,-220 31.69,-178.33 36.7,-127.7 43.61,-92.01"/>
<text text-anchor="middle" x="27.23" y="-95.01" font-family="Times,serif" font-size="10.00">students</text>
<text text-anchor="middle" x="351.05" y="-384.19" font-family="Times,serif" font-size="10.00">uni</text>
</g>
<!-- carli -->
<g id="node7" class="node">
<title>carli</title>
<polygon fill="none" stroke="black" points="607,-198 607,-216 701,-216 701,-198 607,-198"/>
<text text-anchor="start" x="627.2" y="-205" font-family="Times,serif" text-decoration="underline" font-size="10.00">carli :Student</text>
<polygon fill="none" stroke="black" points="607,-132 607,-198 701,-198 701,-132 607,-132"/>
<text text-anchor="start" x="610" y="-186" font-family="Times,serif" font-size="10.00"> &#160;credits = 0.0</text>
<text text-anchor="start" x="610" y="-174" font-family="Times,serif" font-size="10.00"> &#160;motivation = 0.0</text>
<text text-anchor="start" x="610" y="-162" font-family="Times,serif" font-size="10.00"> &#160;name = &quot;Carli&quot;</text>
<text text-anchor="start" x="610" y="-150" font-family="Times,serif" font-size="10.00"> &#160;points = 0.0</text>
<text text-anchor="start" x="610" y="-138" font-family="Times,serif" font-size="10.00"> &#160;studentId = &quot;m2323&quot;</text>
</g>
<!-- study_Right&#45;&gt;carli -->
<g id="edge6" class="edge">
<title>study_Right&#45;&gt;carli</title>
<path fill="none" stroke="black" d="M467.98,-359.89C486.28,-350.8 505.96,-338.8 521,-324 545.68,-299.72 537.04,-282.76 559,-256 570.55,-241.93 584.75,-228.37 598.61,-216.5"/>
<text text-anchor="middle" x="582.23" y="-219.5" font-family="Times,serif" font-size="10.00">students</text>
<text text-anchor="middle" x="461.59" y="-350.89" font-family="Times,serif" font-size="10.00">uni</text>
</g>
<!-- r&#45;&gt;alice -->
<g id="edge9" class="edge">
<title>r&#45;&gt;alice</title>
<path fill="none" stroke="black" d="M432.77,-255.72C424.73,-244.68 415.64,-232.19 407.05,-220.4"/>
<text text-anchor="middle" x="423.44" y="-223.4" font-family="Times,serif" font-size="10.00">students</text>
<text text-anchor="middle" x="428.88" y="-246.72" font-family="Times,serif" font-size="10.00">in</text>
</g>
<!-- r&#45;&gt;carli -->
<g id="edge10" class="edge">
<title>r&#45;&gt;carli</title>
<path fill="none" stroke="black" d="M512.27,-262.42C536.53,-250.22 565.1,-235.12 590,-220 592.9,-218.24 595.85,-216.39 598.8,-214.49"/>
<text text-anchor="middle" x="582.41" y="-205.49" font-family="Times,serif" font-size="10.00">students</text>
<text text-anchor="middle" x="516.15" y="-265.42" font-family="Times,serif" font-size="10.00">in</text>
</g>
<!-- a -->
<g id="node8" class="node">
<title>a</title>
<polygon fill="none" stroke="black" points="375,-52 375,-70 455,-70 455,-52 375,-52"/>
<text text-anchor="start" x="386.25" y="-59" font-family="Times,serif" text-decoration="underline" font-size="10.00">a :Assignment</text>
<polygon fill="none" stroke="black" points="375,-22 375,-52 455,-52 455,-22 375,-22"/>
<text text-anchor="start" x="378" y="-40" font-family="Times,serif" font-size="10.00"> &#160;points = 42.0</text>
<text text-anchor="start" x="378" y="-28" font-family="Times,serif" font-size="10.00"> &#160;task = &quot;integrals&quot;</text>
</g>
<!-- r&#45;&gt;a -->
<g id="edge7" class="edge">
<title>r&#45;&gt;a</title>
<path fill="none" stroke="black" d="M454.63,-255.76C451.94,-223.04 446.73,-171.75 438,-128 434.36,-109.79 428.68,-89.72 423.87,-74.11"/>
<text text-anchor="middle" x="448.31" y="-77.11" font-family="Times,serif" font-size="10.00">assignments</text>
<text text-anchor="middle" x="444.08" y="-246.76" font-family="Times,serif" font-size="10.00">room</text>
</g>
<!-- a3 -->
<g id="node9" class="node">
<title>a3</title>
<polygon fill="none" stroke="black" points="494,-180 494,-198 573,-198 573,-180 494,-180"/>
<text text-anchor="start" x="502.25" y="-187" font-family="Times,serif" text-decoration="underline" font-size="10.00">a3 :Assignment</text>
<polygon fill="none" stroke="black" points="494,-150 494,-180 573,-180 573,-150 494,-150"/>
<text text-anchor="start" x="497" y="-168" font-family="Times,serif" font-size="10.00"> &#160;points = 23.0</text>
<text text-anchor="start" x="497" y="-156" font-family="Times,serif" font-size="10.00"> &#160;task = &quot;matrices&quot;</text>
</g>
<!-- r&#45;&gt;a3 -->
<g id="edge8" class="edge">
<title>r&#45;&gt;a3</title>
<path fill="none" stroke="black" d="M479.19,-255.72C490.49,-238.76 504.07,-218.4 514.75,-202.37"/>
<text text-anchor="middle" x="490.31" y="-205.37" font-family="Times,serif" font-size="10.00">assignments</text>
<text text-anchor="middle" x="468.63" y="-246.72" font-family="Times,serif" font-size="10.00">room</text>
</g>
<!-- r1&#45;&gt;bobby -->
<g id="edge13" class="edge">
<title>r1&#45;&gt;bobby</title>
<path fill="none" stroke="black" d="M135.8,-269.41C112.95,-258.45 88.46,-242.38 74,-220 49.48,-182.06 47.12,-129.43 49.4,-92.21"/>
<text text-anchor="middle" x="65.79" y="-95.21" font-family="Times,serif" font-size="10.00">students</text>
<text text-anchor="middle" x="131.91" y="-272.41" font-family="Times,serif" font-size="10.00">in</text>
</g>
<!-- a4 -->
<g id="node10" class="node">
<title>a4</title>
<polygon fill="none" stroke="black" points="91,-180 91,-198 173,-198 173,-180 91,-180"/>
<text text-anchor="start" x="100.75" y="-187" font-family="Times,serif" text-decoration="underline" font-size="10.00">a4 :Assignment</text>
<polygon fill="none" stroke="black" points="91,-150 91,-180 173,-180 173,-150 91,-150"/>
<text text-anchor="start" x="94" y="-168" font-family="Times,serif" font-size="10.00"> &#160;points = 12.0</text>
<text text-anchor="start" x="94" y="-156" font-family="Times,serif" font-size="10.00"> &#160;task = &quot;drawings&quot;</text>
</g>
<!-- r1&#45;&gt;a4 -->
<g id="edge11" class="edge">
<title>r1&#45;&gt;a4</title>
<path fill="none" stroke="black" d="M173.78,-255.72C165,-238.76 154.46,-218.4 146.16,-202.37"/>
<text text-anchor="middle" x="121.72" y="-205.37" font-family="Times,serif" font-size="10.00">assignments</text>
<text text-anchor="middle" x="163.22" y="-246.72" font-family="Times,serif" font-size="10.00">room</text>
</g>
<!-- a5 -->
<g id="node11" class="node">
<title>a5</title>
<polygon fill="none" stroke="black" points="207,-180 207,-198 293,-198 293,-180 207,-180"/>
<text text-anchor="start" x="218.75" y="-187" font-family="Times,serif" text-decoration="underline" font-size="10.00">a5 :Assignment</text>
<polygon fill="none" stroke="black" points="207,-150 207,-180 293,-180 293,-150 207,-150"/>
<text text-anchor="start" x="210" y="-168" font-family="Times,serif" font-size="10.00"> &#160;points = 12.0</text>
<text text-anchor="start" x="210" y="-156" font-family="Times,serif" font-size="10.00"> &#160;task = &quot;sculptures&quot;</text>
</g>
<!-- r1&#45;&gt;a5 -->
<g id="edge12" class="edge">
<title>r1&#45;&gt;a5</title>
<path fill="none" stroke="black" d="M208.22,-255.72C217,-238.76 227.54,-218.4 235.84,-202.37"/>
<text text-anchor="middle" x="211.39" y="-205.37" font-family="Times,serif" font-size="10.00">assignments</text>
<text text-anchor="middle" x="197.67" y="-246.72" font-family="Times,serif" font-size="10.00">room</text>
</g>
<!-- alice&#45;&gt;bobby -->
<g id="edge15" class="edge">
<title>alice&#45;&gt;bobby</title>
<path fill="none" stroke="black" d="M318.78,-132.68C315.86,-131.02 312.92,-129.45 310,-128 244.45,-95.51 163.04,-72.34 110.09,-59.32"/>
<text text-anchor="middle" x="123.97" y="-62.32" font-family="Times,serif" font-size="10.00">friends</text>
<text text-anchor="middle" x="304.9" y="-135.68" font-family="Times,serif" font-size="10.00">friends</text>
</g>
<!-- alice&#45;&gt;a -->
<g id="edge14" class="edge">
<title>alice&#45;&gt;a</title>
<path fill="none" stroke="black" d="M388.69,-127.87C394.52,-109.93 401.04,-89.89 406.13,-74.24"/>
<text text-anchor="middle" x="396.42" y="-77.24" font-family="Times,serif" font-size="10.00">done</text>
<text text-anchor="middle" x="372.3" y="-118.87" font-family="Times,serif" font-size="10.00">students</text>
</g>
</g>
</svg>
