<svg width="439px" height="227px"
 viewBox="0.00 0.00 439.49 226.86" xmlns="http://www.w3.org/2000/svg" xmlns:xlink="http://www.w3.org/1999/xlink">
<g id="graph0" class="graph" transform="scale(1.0 1.0) rotate(0) translate(4 222.86)">
<title>org.fulib.patterns.model</title>
<polygon fill="white" stroke="transparent" points="-4,4 -4,-222.86 435.49,-222.86 435.49,4 -4,4"/>
<!-- Pattern -->
<g id="node1" class="node">
<title>Pattern</title>
<polygon fill="none" stroke="black" points="192.5,-192.86 192.5,-214.86 237.5,-214.86 237.5,-192.86 192.5,-192.86"/>
<text text-anchor="start" x="195.17" y="-199.26" font-family="Times,serif" font-size="14.00">Pattern</text>
<polygon fill="none" stroke="black" points="192.5,-186.86 192.5,-192.86 237.5,-192.86 237.5,-186.86 192.5,-186.86"/>
</g>
<!-- PatternObject -->
<g id="node2" class="node">
<title>PatternObject</title>
<polygon fill="none" stroke="black" points="135.5,-120.86 135.5,-142.86 217.5,-142.86 217.5,-120.86 135.5,-120.86"/>
<text text-anchor="start" x="138.01" y="-127.26" font-family="Times,serif" font-size="14.00">PatternObject</text>
<polygon fill="none" stroke="black" points="135.5,-98.86 135.5,-120.86 217.5,-120.86 217.5,-98.86 135.5,-98.86"/>
<text text-anchor="start" x="140.53" y="-105.26" font-family="Times,serif" font-size="14.00">name :String</text>
</g>
<!-- PatternObject&#45;&gt;Pattern -->
<g id="edge7" class="edge">
<title>PatternObject&#45;&gt;Pattern</title>
<path fill="none" stroke="black" d="M188.73,-146.96C194.37,-158.54 200.93,-172 206.02,-182.45"/>
<text text-anchor="middle" x="186.58" y="-169.85" font-family="Times,serif" font-size="14.00">pattern</text>
<text text-anchor="middle" x="163.66" y="-151.16" font-family="Times,serif" font-size="14.00">objects *</text>
</g>
<!-- RoleObject -->
<g id="node3" class="node">
<title>RoleObject</title>
<polygon fill="none" stroke="black" points="8.5,-32.86 8.5,-54.86 85.5,-54.86 85.5,-32.86 8.5,-32.86"/>
<text text-anchor="start" x="15.12" y="-39.26" font-family="Times,serif" font-size="14.00">RoleObject</text>
<polygon fill="none" stroke="black" points="8.5,-10.86 8.5,-32.86 85.5,-32.86 85.5,-10.86 8.5,-10.86"/>
<text text-anchor="start" x="11.5" y="-17.26" font-family="Times,serif" font-size="14.00">name :String</text>
</g>
<!-- RoleObject&#45;&gt;Pattern -->
<g id="edge1" class="edge">
<title>RoleObject&#45;&gt;Pattern</title>
<path fill="none" stroke="black" d="M57.83,-58.86C70.03,-83.61 91.37,-121.38 118.5,-146.86 137.51,-164.71 163.67,-178.63 183.88,-187.72"/>
<text text-anchor="middle" x="164.44" y="-191.92" font-family="Times,serif" font-size="14.00">pattern</text>
<text text-anchor="middle" x="38.98" y="-63.06" font-family="Times,serif" font-size="14.00">roles *</text>
</g>
<!-- RoleObject&#45;&gt;PatternObject -->
<g id="edge2" class="edge">
<title>RoleObject&#45;&gt;PatternObject</title>
<path fill="none" stroke="black" d="M84.45,-58.96C101.39,-70.17 121.31,-83.34 138.28,-94.57"/>
<text text-anchor="middle" x="121.17" y="-81.97" font-family="Times,serif" font-size="14.00">object</text>
<text text-anchor="middle" x="103.31" y="-63.16" font-family="Times,serif" font-size="14.00">roles *</text>
</g>
<!-- RoleObject&#45;&gt;RoleObject -->
<g id="edge4" class="edge">
<title>RoleObject&#45;&gt;RoleObject</title>
<path fill="none" stroke="black" d="M93.17,-16.8C103.49,-18.31 111,-23.66 111,-32.86 111,-42.05 103.49,-47.4 93.17,-48.91"/>
<text text-anchor="middle" x="107.56" y="-36.31" font-family="Times,serif" font-size="14.00">other</text>
<text text-anchor="middle" x="107.56" y="-4.2" font-family="Times,serif" font-size="14.00">other</text>
</g>
<!-- AttributeConstraint -->
<g id="node4" class="node">
<title>AttributeConstraint</title>
<polygon fill="none" stroke="black" points="137.5,-24.86 137.5,-46.86 251.5,-46.86 251.5,-24.86 137.5,-24.86"/>
<text text-anchor="start" x="140.06" y="-31.26" font-family="Times,serif" font-size="14.00">AttributeConstraint</text>
<polygon fill="none" stroke="black" points="137.5,-18.86 137.5,-24.86 251.5,-24.86 251.5,-18.86 137.5,-18.86"/>
</g>
<!-- AttributeConstraint&#45;&gt;Pattern -->
<g id="edge3" class="edge">
<title>AttributeConstraint&#45;&gt;Pattern</title>
<path fill="none" stroke="black" d="M209.58,-50.88C218.75,-62.41 229.61,-78.47 234.5,-94.86 241.11,-117 238.65,-124.12 234.5,-146.86 232.24,-159.24 227.24,-172.49 222.81,-182.64"/>
<text text-anchor="middle" x="242.24" y="-170.04" font-family="Times,serif" font-size="14.00">pattern</text>
<text text-anchor="middle" x="270.04" y="-55.08" font-family="Times,serif" font-size="14.00">attributeConstraints *</text>
</g>
<!-- AttributeConstraint&#45;&gt;PatternObject -->
<g id="edge8" class="edge">
<title>AttributeConstraint&#45;&gt;PatternObject</title>
<path fill="none" stroke="black" d="M190.86,-51.26C188.25,-63.73 184.69,-80.71 181.78,-94.65"/>
<text text-anchor="middle" x="164.67" y="-82.05" font-family="Times,serif" font-size="14.00">object</text>
<text text-anchor="middle" x="160.63" y="-55.46" font-family="Times,serif" font-size="14.00">attributeConstraints *</text>
</g>
<!-- MatchConstraint -->
<g id="node5" class="node">
<title>MatchConstraint</title>
<polygon fill="none" stroke="black" points="285.5,-24.86 285.5,-46.86 385.5,-46.86 385.5,-24.86 285.5,-24.86"/>
<text text-anchor="start" x="288.45" y="-31.26" font-family="Times,serif" font-size="14.00">MatchConstraint</text>
<polygon fill="none" stroke="black" points="285.5,-18.86 285.5,-24.86 385.5,-24.86 385.5,-18.86 285.5,-18.86"/>
</g>
<!-- MatchConstraint&#45;&gt;Pattern -->
<g id="edge5" class="edge">
<title>MatchConstraint&#45;&gt;Pattern</title>
<path fill="none" stroke="black" d="M323.01,-51C299.82,-82.81 250.38,-150.63 227.11,-182.56"/>
<text text-anchor="middle" x="246.54" y="-186.76" font-family="Times,serif" font-size="14.00">pattern</text>
<text text-anchor="middle" x="377.25" y="-55.2" font-family="Times,serif" font-size="14.00">matchConstraints *</text>
</g>
<!-- MatchConstraint&#45;&gt;PatternObject -->
<g id="edge6" class="edge">
<title>MatchConstraint&#45;&gt;PatternObject</title>
<path fill="none" stroke="black" d="M303.71,-51.05C280.6,-63.55 248.95,-80.67 223.01,-94.7"/>
<text text-anchor="middle" x="248.09" y="-82.1" font-family="Times,serif" font-size="14.00">objects *</text>
<text text-anchor="middle" x="357.95" y="-38.45" font-family="Times,serif" font-size="14.00">matchConstraints *</text>
</g>
</g>
</svg>
